<?xml version="1.0" encoding="UTF-8" standalone="no"?>
<svg
   xmlns:dc="http://purl.org/dc/elements/1.1/"
   xmlns:cc="http://creativecommons.org/ns#"
   xmlns:rdf="http://www.w3.org/1999/02/22-rdf-syntax-ns#"
   xmlns:svg="http://www.w3.org/2000/svg"
   xmlns="http://www.w3.org/2000/svg"
   xmlns:sodipodi="http://sodipodi.sourceforge.net/DTD/sodipodi-0.dtd"
   xmlns:inkscape="http://www.inkscape.org/namespaces/inkscape"
   width="210mm"
   height="297mm"
   viewBox="0 0 210 297"
   version="1.1"
   id="svg1078"
   inkscape:version="1.0.1 (c497b03c, 2020-09-10)"
   sodipodi:docname="kilu3.svg">
  <defs
     id="defs1072" />
  <sodipodi:namedview
     id="base"
     pagecolor="#ffffff"
     bordercolor="#666666"
     borderopacity="1.0"
     inkscape:pageopacity="0.0"
     inkscape:pageshadow="2"
     inkscape:zoom="0.35"
     inkscape:cx="400"
     inkscape:cy="560"
     inkscape:document-units="mm"
     inkscape:current-layer="layer1"
     inkscape:document-rotation="0"
     showgrid="false"
     inkscape:window-width="1433"
     inkscape:window-height="776"
     inkscape:window-x="0"
     inkscape:window-y="23"
     inkscape:window-maximized="0" />
  <metadata
     id="metadata1075">
    <rdf:RDF>
      <cc:Work
         rdf:about="">
        <dc:format>image/svg+xml</dc:format>
        <dc:type
           rdf:resource="http://purl.org/dc/dcmitype/StillImage" />
        <dc:title></dc:title>
      </cc:Work>
    </rdf:RDF>
  </metadata>
  <g
     inkscape:label="Layer 1"
     inkscape:groupmode="layer"
     id="layer1">
    <path
       style="opacity:1;fill:#d11149;fill-opacity:1;fill-rule:evenodd;stroke:none;stroke-width:0.992188;stroke-linecap:round;stroke-linejoin:miter;stroke-miterlimit:4;stroke-dasharray:none;stroke-dashoffset:0;stroke-opacity:1"
       d="m 98.139373,94.198234 c 0.968885,-1.283084 21.127917,-4.664882 22.137987,-4.319607 0.92762,0.704112 0.25215,9.027861 -0.89992,9.719117 -6.46572,-0.32751 -15.36157,-2.373983 -17.45841,-2.519772 -2.117749,-0.632486 -4.596935,-0.588923 -3.779657,-2.879738 z"
       id="path7155"
       inkscape:connector-curvature="0"
       sodipodi:nodetypes="ccccc" />
    <path
       inkscape:connector-curvature="0"
       id="path6627"
       style="fill:#000000;fill-opacity:1;fill-rule:nonzero;stroke:none;stroke-width:0.330729"
       d="m 81.557034,111.66946 c 0,-0.32756 -0.265543,-0.5931 -0.593097,-0.5931 -0.327554,0 -0.593097,0.26554 -0.593097,0.5931 0,0.32755 0.265543,0.59309 0.593097,0.59309 0.327554,0 0.593097,-0.26554 0.593097,-0.59309" />
    <path
       inkscape:connector-curvature="0"
       id="path6633"
       style="fill:#000000;fill-opacity:1;fill-rule:nonzero;stroke:none;stroke-width:0.330729"
       d="m 90.998094,102.29461 c 0,-0.36394 -0.295043,-0.65898 -0.658977,-0.65898 -0.363935,0 -0.658978,0.29504 -0.658978,0.65898 0,0.36393 0.295043,0.65897 0.658978,0.65897 0.363934,0 0.658977,-0.29504 0.658977,-0.65897" />
    <path
       inkscape:connector-curvature="0"
       id="path6641"
       style="fill:none;stroke:#000000;stroke-width:0.330729;stroke-linecap:butt;stroke-linejoin:miter;stroke-miterlimit:10;stroke-dasharray:none;stroke-opacity:1"
       d="m 81.383302,111.25009 8.489817,-8.48949" />
    <path
       inkscape:connector-curvature="0"
       id="path6647"
       style="fill:#ffffff;fill-opacity:1;fill-rule:nonzero;stroke:none;stroke-width:0.330729"
       d="m 100.37294,94.794992 c 0,-0.363935 -0.29504,-0.658978 -0.658975,-0.658978 -0.363934,0 -0.658978,0.295043 -0.658978,0.658978 0,0.363934 0.295044,0.658978 0.658978,0.658978 0.363935,0 0.658975,-0.295044 0.658975,-0.658978" />
    <path
       inkscape:connector-curvature="0"
       id="path6649"
       style="fill:#000000;fill-opacity:1;fill-rule:evenodd;stroke:none;stroke-width:0.330729"
       d="m 100.37294,94.794992 c 0,-0.363935 -0.29504,-0.658978 -0.658975,-0.658978 -0.363934,0 -0.658978,0.295043 -0.658978,0.658978 0,0.363934 0.295044,0.658978 0.658978,0.658978 0.363935,0 0.658975,-0.295044 0.658975,-0.658978 z m 0,0 h -0.13179 c 0,-0.291174 -0.23601,-0.527183 -0.527185,-0.527183 -0.291174,0 -0.527182,0.236009 -0.527182,0.527183 0,0.291174 0.236008,0.527182 0.527182,0.527182 0.291175,0 0.527185,-0.236008 0.527185,-0.527182" />
    <path
       inkscape:connector-curvature="0"
       id="path6657"
       style="fill:none;stroke:#000000;stroke-width:0.330729;stroke-linecap:butt;stroke-linejoin:miter;stroke-miterlimit:10;stroke-dasharray:none;stroke-opacity:1"
       d="m 90.853731,101.88318 8.34562,-6.676761" />
    <path
       inkscape:connector-curvature="0"
       id="path6663"
       style="fill:#000000;fill-opacity:1;fill-rule:nonzero;stroke:none;stroke-width:0.330729"
       d="m 109.74812,92.919757 c 0,-0.363934 -0.29504,-0.658978 -0.65898,-0.658978 -0.36393,0 -0.65897,0.295044 -0.65897,0.658978 0,0.363935 0.29504,0.658978 0.65897,0.658978 0.36394,0 0.65898,-0.295043 0.65898,-0.658978" />
    <path
       inkscape:connector-curvature="0"
       id="path6671"
       style="fill:none;stroke:#000000;stroke-width:0.330729;stroke-linecap:butt;stroke-linejoin:miter;stroke-miterlimit:10;stroke-dasharray:1.96253, 1.17752, 0, 0;stroke-dashoffset:0;stroke-opacity:1"
       d="m 100.36021,94.665677 8.08269,-1.616605" />
    <path
       inkscape:connector-curvature="0"
       id="path6677"
       style="fill:#000000;fill-opacity:1;fill-rule:nonzero;stroke:none;stroke-width:0.330729"
       d="m 119.12297,91.982471 c 0,-0.363935 -0.29504,-0.658978 -0.65898,-0.658978 -0.36393,0 -0.65897,0.295043 -0.65897,0.658978 0,0.363934 0.29504,0.658978 0.65897,0.658978 0.36394,0 0.65898,-0.295044 0.65898,-0.658978" />
    <path
       inkscape:connector-curvature="0"
       id="path6685"
       style="fill:none;stroke:#000000;stroke-width:0.330729;stroke-linecap:butt;stroke-linejoin:miter;stroke-miterlimit:10;stroke-dasharray:1.92948, 1.15769, 0, 0;stroke-dashoffset:0;stroke-opacity:1"
       d="m 109.74465,92.854273 8.06351,-0.806318" />
    <path
       inkscape:connector-curvature="0"
       id="path6691"
       style="fill:#000000;fill-opacity:1;fill-rule:nonzero;stroke:none;stroke-width:0.330729"
       d="m 119.12297,93.857374 c 0,-0.363934 -0.29504,-0.658977 -0.65898,-0.658977 -0.36393,0 -0.65897,0.295043 -0.65897,0.658977 0,0.363935 0.29504,0.658978 0.65897,0.658978 0.36394,0 0.65898,-0.295043 0.65898,-0.658978" />
    <path
       inkscape:connector-curvature="0"
       id="path6699"
       style="fill:none;stroke:#000000;stroke-width:0.330729;stroke-linecap:butt;stroke-linejoin:miter;stroke-miterlimit:10;stroke-dasharray:1.92948, 1.15768, 0, 0;stroke-dashoffset:0;stroke-opacity:1"
       d="m 109.74465,92.985572 8.06351,0.805987" />
    <path
       inkscape:connector-curvature="0"
       id="path6705"
       style="fill:#000000;fill-opacity:1;fill-rule:nonzero;stroke:none;stroke-width:0.330729"
       d="m 109.74812,96.669895 c 0,-0.363934 -0.29504,-0.658978 -0.65898,-0.658978 -0.36393,0 -0.65897,0.295044 -0.65897,0.658978 0,0.363935 0.29504,0.658978 0.65897,0.658978 0.36394,0 0.65898,-0.295043 0.65898,-0.658978" />
    <path
       inkscape:connector-curvature="0"
       id="path6713"
       style="fill:none;stroke:#000000;stroke-width:0.330729;stroke-linecap:butt;stroke-linejoin:miter;stroke-miterlimit:10;stroke-dasharray:1.96253, 1.17752, 0, 0;stroke-dashoffset:0;stroke-opacity:1"
       d="m 100.36021,94.923976 8.08269,1.616604" />
    <path
       inkscape:connector-curvature="0"
       id="path6719"
       style="fill:#000000;fill-opacity:1;fill-rule:nonzero;stroke:none;stroke-width:0.330729"
       d="m 119.12297,95.732278 c 0,-0.363934 -0.29504,-0.658978 -0.65898,-0.658978 -0.36393,0 -0.65897,0.295044 -0.65897,0.658978 0,0.363935 0.29504,0.658978 0.65897,0.658978 0.36394,0 0.65898,-0.295043 0.65898,-0.658978" />
    <path
       inkscape:connector-curvature="0"
       id="path6727"
       style="fill:none;stroke:#000000;stroke-width:0.330729;stroke-linecap:butt;stroke-linejoin:miter;stroke-miterlimit:10;stroke-dasharray:1.92948, 1.15768, 0, 0;stroke-dashoffset:0;stroke-opacity:1"
       d="m 109.74465,96.60408 8.06351,-0.806317" />
    <path
       inkscape:connector-curvature="0"
       id="path6733"
       style="fill:#000000;fill-opacity:1;fill-rule:nonzero;stroke:none;stroke-width:0.330729"
       d="m 119.12297,97.607182 c 0,-0.363935 -0.29504,-0.658978 -0.65898,-0.658978 -0.36393,0 -0.65897,0.295043 -0.65897,0.658978 0,0.363934 0.29504,0.658978 0.65897,0.658978 0.36394,0 0.65898,-0.295044 0.65898,-0.658978" />
    <path
       inkscape:connector-curvature="0"
       id="path6741"
       style="fill:none;stroke:#000000;stroke-width:0.330729;stroke-linecap:butt;stroke-linejoin:miter;stroke-miterlimit:10;stroke-dasharray:1.92948, 1.15769, 0, 0;stroke-dashoffset:0;stroke-opacity:1"
       d="m 109.74465,96.73538 8.06351,0.806317" />
    <path
       inkscape:connector-curvature="0"
       id="path6747"
       style="fill:#000000;fill-opacity:1;fill-rule:nonzero;stroke:none;stroke-width:0.330729"
       d="m 100.37294,102.29461 c 0,-0.36394 -0.29504,-0.65898 -0.658975,-0.65898 -0.363934,0 -0.658978,0.29504 -0.658978,0.65898 0,0.36393 0.295044,0.65897 0.658978,0.65897 0.363935,0 0.658975,-0.29504 0.658975,-0.65897" />
    <path
       inkscape:connector-curvature="0"
       id="path6755"
       style="fill:none;stroke:#000000;stroke-width:0.330729;stroke-linecap:round;stroke-linejoin:miter;stroke-miterlimit:10;stroke-dasharray:0, 0.858475;stroke-dashoffset:-0.165365;stroke-opacity:1"
       d="m 90.997929,102.29461 h 8.057224" />
    <path
       inkscape:connector-curvature="0"
       id="path6761"
       style="fill:#000000;fill-opacity:1;fill-rule:nonzero;stroke:none;stroke-width:0.330729"
       d="m 109.74812,100.4197 c 0,-0.36393 -0.29504,-0.658976 -0.65898,-0.658976 -0.36393,0 -0.65897,0.295046 -0.65897,0.658976 0,0.36394 0.29504,0.65898 0.65897,0.65898 0.36394,0 0.65898,-0.29504 0.65898,-0.65898" />
    <path
       inkscape:connector-curvature="0"
       id="path6769"
       style="fill:none;stroke:#000000;stroke-width:0.330729;stroke-linecap:round;stroke-linejoin:miter;stroke-miterlimit:10;stroke-dasharray:0, 0.791194;stroke-dashoffset:-0.165365;stroke-opacity:1"
       d="m 100.36021,102.16562 8.08269,-1.6166" />
    <path
       inkscape:connector-curvature="0"
       id="path6775"
       style="fill:#000000;fill-opacity:1;fill-rule:nonzero;stroke:none;stroke-width:0.330729"
       d="m 119.12297,99.482085 c 0,-0.363934 -0.29504,-0.658977 -0.65898,-0.658977 -0.36393,0 -0.65897,0.295043 -0.65897,0.658977 0,0.363934 0.29504,0.658975 0.65897,0.658975 0.36394,0 0.65898,-0.295041 0.65898,-0.658975" />
    <path
       inkscape:connector-curvature="0"
       id="path6783"
       style="fill:none;stroke:#000000;stroke-width:0.330729;stroke-linecap:round;stroke-linejoin:miter;stroke-miterlimit:10;stroke-dasharray:0, 0.863677;stroke-dashoffset:-0.165365;stroke-opacity:1"
       d="m 109.74465,100.35422 8.06351,-0.80632" />
    <path
       inkscape:connector-curvature="0"
       id="path6789"
       style="fill:#000000;fill-opacity:1;fill-rule:nonzero;stroke:none;stroke-width:0.330729"
       d="m 119.12297,101.35732 c 0,-0.36393 -0.29504,-0.65898 -0.65898,-0.65898 -0.36393,0 -0.65897,0.29505 -0.65897,0.65898 0,0.36393 0.29504,0.65898 0.65897,0.65898 0.36394,0 0.65898,-0.29505 0.65898,-0.65898" />
    <path
       inkscape:connector-curvature="0"
       id="path6797"
       style="fill:none;stroke:#000000;stroke-width:0.330729;stroke-linecap:round;stroke-linejoin:miter;stroke-miterlimit:10;stroke-dasharray:0, 0.863677;stroke-dashoffset:-0.165365;stroke-opacity:1"
       d="m 109.74465,100.48519 8.06351,0.80631" />
    <path
       inkscape:connector-curvature="0"
       id="path6803"
       style="fill:#000000;fill-opacity:1;fill-rule:nonzero;stroke:none;stroke-width:0.330729"
       d="m 109.74812,104.16951 c 0,-0.36393 -0.29504,-0.65898 -0.65898,-0.65898 -0.36393,0 -0.65897,0.29505 -0.65897,0.65898 0,0.36393 0.29504,0.65898 0.65897,0.65898 0.36394,0 0.65898,-0.29505 0.65898,-0.65898" />
    <path
       inkscape:connector-curvature="0"
       id="path6811"
       style="fill:none;stroke:#000000;stroke-width:0.330729;stroke-linecap:round;stroke-linejoin:miter;stroke-miterlimit:10;stroke-dasharray:0, 0.791189;stroke-dashoffset:-0.165365;stroke-opacity:1"
       d="m 100.36021,102.42392 8.08269,1.61661" />
    <path
       inkscape:connector-curvature="0"
       id="path6817"
       style="fill:#000000;fill-opacity:1;fill-rule:nonzero;stroke:none;stroke-width:0.330729"
       d="m 119.12297,103.23222 c 0,-0.36393 -0.29504,-0.65897 -0.65898,-0.65897 -0.36393,0 -0.65897,0.29504 -0.65897,0.65897 0,0.36394 0.29504,0.65898 0.65897,0.65898 0.36394,0 0.65898,-0.29504 0.65898,-0.65898" />
    <path
       inkscape:connector-curvature="0"
       id="path6825"
       style="fill:none;stroke:#000000;stroke-width:0.330729;stroke-linecap:round;stroke-linejoin:miter;stroke-miterlimit:10;stroke-dasharray:0, 0.863677;stroke-dashoffset:-0.165365;stroke-opacity:1"
       d="m 109.74465,104.10403 8.06351,-0.80632" />
    <path
       inkscape:connector-curvature="0"
       id="path6831"
       style="fill:#000000;fill-opacity:1;fill-rule:nonzero;stroke:none;stroke-width:0.330729"
       d="m 119.12297,105.10713 c 0,-0.36394 -0.29504,-0.65898 -0.65898,-0.65898 -0.36393,0 -0.65897,0.29504 -0.65897,0.65898 0,0.36393 0.29504,0.65898 0.65897,0.65898 0.36394,0 0.65898,-0.29505 0.65898,-0.65898" />
    <path
       inkscape:connector-curvature="0"
       id="path6839"
       style="fill:none;stroke:#000000;stroke-width:0.330729;stroke-linecap:round;stroke-linejoin:miter;stroke-miterlimit:10;stroke-dasharray:0, 0.863677;stroke-dashoffset:-0.165365;stroke-opacity:1"
       d="m 109.74465,104.23533 8.06351,0.80631" />
    <path
       inkscape:connector-curvature="0"
       id="path6845"
       style="fill:#000000;fill-opacity:1;fill-rule:nonzero;stroke:none;stroke-width:0.330729"
       d="m 100.37294,109.79455 c 0,-0.36393 -0.29504,-0.65898 -0.658975,-0.65898 -0.363934,0 -0.658978,0.29505 -0.658978,0.65898 0,0.36394 0.295044,0.65898 0.658978,0.65898 0.363935,0 0.658975,-0.29504 0.658975,-0.65898" />
    <path
       inkscape:connector-curvature="0"
       id="path6853"
       style="fill:none;stroke:#000000;stroke-width:0.330729;stroke-linecap:round;stroke-linejoin:miter;stroke-miterlimit:10;stroke-dasharray:0, 0.796697;stroke-dashoffset:-0.165365;stroke-opacity:1"
       d="m 90.853731,102.70636 8.34562,6.67643" />
    <path
       inkscape:connector-curvature="0"
       id="path6859"
       style="fill:#000000;fill-opacity:1;fill-rule:nonzero;stroke:none;stroke-width:0.330729"
       d="m 109.74812,107.91965 c 0,-0.36394 -0.29504,-0.65898 -0.65898,-0.65898 -0.36393,0 -0.65897,0.29504 -0.65897,0.65898 0,0.36393 0.29504,0.65898 0.65897,0.65898 0.36394,0 0.65898,-0.29505 0.65898,-0.65898" />
    <path
       inkscape:connector-curvature="0"
       id="path6867"
       style="fill:none;stroke:#000000;stroke-width:0.330729;stroke-linecap:round;stroke-linejoin:miter;stroke-miterlimit:10;stroke-dasharray:0, 0.791189;stroke-dashoffset:-0.165365;stroke-opacity:1"
       d="m 100.36021,109.66524 8.08269,-1.61628" />
    <path
       inkscape:connector-curvature="0"
       id="path6873"
       style="fill:#000000;fill-opacity:1;fill-rule:nonzero;stroke:none;stroke-width:0.330729"
       d="m 119.12297,106.98203 c 0,-0.36393 -0.29504,-0.65898 -0.65898,-0.65898 -0.36393,0 -0.65897,0.29505 -0.65897,0.65898 0,0.36394 0.29504,0.65898 0.65897,0.65898 0.36394,0 0.65898,-0.29504 0.65898,-0.65898" />
    <path
       inkscape:connector-curvature="0"
       id="path6881"
       style="fill:none;stroke:#000000;stroke-width:0.330729;stroke-linecap:round;stroke-linejoin:miter;stroke-miterlimit:10;stroke-dasharray:0, 0.863677;stroke-dashoffset:-0.165365;stroke-opacity:1"
       d="m 109.74465,107.85416 8.06351,-0.80631" />
    <path
       inkscape:connector-curvature="0"
       id="path6887"
       style="fill:#000000;fill-opacity:1;fill-rule:nonzero;stroke:none;stroke-width:0.330729"
       d="m 119.12297,108.85693 c 0,-0.36393 -0.29504,-0.65897 -0.65898,-0.65897 -0.36393,0 -0.65897,0.29504 -0.65897,0.65897 0,0.36394 0.29504,0.65898 0.65897,0.65898 0.36394,0 0.65898,-0.29504 0.65898,-0.65898" />
    <path
       inkscape:connector-curvature="0"
       id="path6895"
       style="fill:none;stroke:#000000;stroke-width:0.330729;stroke-linecap:round;stroke-linejoin:miter;stroke-miterlimit:10;stroke-dasharray:0, 0.863677;stroke-dashoffset:-0.165365;stroke-opacity:1"
       d="m 109.74465,107.98513 8.06351,0.80632" />
    <path
       inkscape:connector-curvature="0"
       id="path6901"
       style="fill:#000000;fill-opacity:1;fill-rule:nonzero;stroke:none;stroke-width:0.330729"
       d="m 109.74812,111.66946 c 0,-0.36394 -0.29504,-0.65898 -0.65898,-0.65898 -0.36393,0 -0.65897,0.29504 -0.65897,0.65898 0,0.36393 0.29504,0.65897 0.65897,0.65897 0.36394,0 0.65898,-0.29504 0.65898,-0.65897" />
    <path
       inkscape:connector-curvature="0"
       id="path6909"
       style="fill:none;stroke:#000000;stroke-width:0.330729;stroke-linecap:round;stroke-linejoin:miter;stroke-miterlimit:10;stroke-dasharray:0, 0.791194;stroke-dashoffset:-0.165365;stroke-opacity:1"
       d="m 100.36021,109.92387 8.08269,1.6166" />
    <path
       inkscape:connector-curvature="0"
       id="path6915"
       style="fill:#000000;fill-opacity:1;fill-rule:nonzero;stroke:none;stroke-width:0.330729"
       d="m 119.12297,110.73217 c 0,-0.36394 -0.29504,-0.65898 -0.65898,-0.65898 -0.36393,0 -0.65897,0.29504 -0.65897,0.65898 0,0.36393 0.29504,0.65898 0.65897,0.65898 0.36394,0 0.65898,-0.29505 0.65898,-0.65898" />
    <path
       inkscape:connector-curvature="0"
       id="path6923"
       style="fill:none;stroke:#000000;stroke-width:0.330729;stroke-linecap:round;stroke-linejoin:miter;stroke-miterlimit:10;stroke-dasharray:0, 0.863677;stroke-dashoffset:-0.165365;stroke-opacity:1"
       d="m 109.74465,111.60397 8.06351,-0.80632" />
    <path
       inkscape:connector-curvature="0"
       id="path6929"
       style="fill:#000000;fill-opacity:1;fill-rule:nonzero;stroke:none;stroke-width:0.330729"
       d="m 119.12297,112.60707 c 0,-0.36393 -0.29504,-0.65898 -0.65898,-0.65898 -0.36393,0 -0.65897,0.29505 -0.65897,0.65898 0,0.36394 0.29504,0.65898 0.65897,0.65898 0.36394,0 0.65898,-0.29504 0.65898,-0.65898" />
    <path
       inkscape:connector-curvature="0"
       id="path6937"
       style="fill:none;stroke:#000000;stroke-width:0.330729;stroke-linecap:round;stroke-linejoin:miter;stroke-miterlimit:10;stroke-dasharray:0, 0.863677;stroke-dashoffset:-0.165365;stroke-opacity:1"
       d="m 109.74465,111.73494 8.06351,0.80665" />
    <path
       inkscape:connector-curvature="0"
       id="path6943"
       style="fill:#000000;fill-opacity:1;fill-rule:nonzero;stroke:none;stroke-width:0.330729"
       d="m 90.998094,121.0443 c 0,-0.36393 -0.295043,-0.65897 -0.658977,-0.65897 -0.363935,0 -0.658978,0.29504 -0.658978,0.65897 0,0.36394 0.295043,0.65898 0.658978,0.65898 0.363934,0 0.658977,-0.29504 0.658977,-0.65898" />
    <path
       inkscape:connector-curvature="0"
       id="path6951"
       style="fill:none;stroke:#000000;stroke-width:0.330729;stroke-linecap:round;stroke-linejoin:miter;stroke-miterlimit:10;stroke-dasharray:0, 0.833956;stroke-dashoffset:-0.165365;stroke-opacity:1"
       d="m 81.383302,112.08882 8.489817,8.48949" />
    <path
       inkscape:connector-curvature="0"
       id="path6957"
       style="fill:#000000;fill-opacity:1;fill-rule:nonzero;stroke:none;stroke-width:0.330729"
       d="m 100.37294,117.2945 c 0,-0.36394 -0.29504,-0.65898 -0.658975,-0.65898 -0.363934,0 -0.658978,0.29504 -0.658978,0.65898 0,0.36393 0.295044,0.65898 0.658978,0.65898 0.363935,0 0.658975,-0.29505 0.658975,-0.65898" />
    <path
       inkscape:connector-curvature="0"
       id="path6965"
       style="fill:none;stroke:#000000;stroke-width:0.330729;stroke-linecap:round;stroke-linejoin:miter;stroke-miterlimit:10;stroke-dasharray:0, 0.844844;stroke-dashoffset:-0.165365;stroke-opacity:1"
       d="m 90.950965,120.79956 8.151151,-3.26032" />
    <path
       inkscape:connector-curvature="0"
       id="path6971"
       style="fill:#000000;fill-opacity:1;fill-rule:nonzero;stroke:none;stroke-width:0.330729"
       d="m 109.74812,115.41959 c 0,-0.36393 -0.29504,-0.65897 -0.65898,-0.65897 -0.36393,0 -0.65897,0.29504 -0.65897,0.65897 0,0.36394 0.29504,0.65898 0.65897,0.65898 0.36394,0 0.65898,-0.29504 0.65898,-0.65898" />
    <path
       inkscape:connector-curvature="0"
       id="path6979"
       style="fill:none;stroke:#000000;stroke-width:0.330729;stroke-linecap:round;stroke-linejoin:miter;stroke-miterlimit:10;stroke-dasharray:0, 0.791189;stroke-dashoffset:-0.165365;stroke-opacity:1"
       d="m 100.36021,117.16518 8.08269,-1.61627" />
    <path
       inkscape:connector-curvature="0"
       id="path6985"
       style="fill:#000000;fill-opacity:1;fill-rule:nonzero;stroke:none;stroke-width:0.330729"
       d="m 119.12297,114.48198 c 0,-0.36394 -0.29504,-0.65898 -0.65898,-0.65898 -0.36393,0 -0.65897,0.29504 -0.65897,0.65898 0,0.36393 0.29504,0.65897 0.65897,0.65897 0.36394,0 0.65898,-0.29504 0.65898,-0.65897" />
    <path
       inkscape:connector-curvature="0"
       id="path6993"
       style="fill:none;stroke:#000000;stroke-width:0.330729;stroke-linecap:round;stroke-linejoin:miter;stroke-miterlimit:10;stroke-dasharray:0, 0.863677;stroke-dashoffset:-0.165365;stroke-opacity:1"
       d="m 109.74465,115.35411 8.06351,-0.80665" />
    <path
       inkscape:connector-curvature="0"
       id="path6999"
       style="fill:#000000;fill-opacity:1;fill-rule:nonzero;stroke:none;stroke-width:0.330729"
       d="m 119.12297,116.35688 c 0,-0.36394 -0.29504,-0.65898 -0.65898,-0.65898 -0.36393,0 -0.65897,0.29504 -0.65897,0.65898 0,0.36393 0.29504,0.65898 0.65897,0.65898 0.36394,0 0.65898,-0.29505 0.65898,-0.65898" />
    <path
       inkscape:connector-curvature="0"
       id="path7007"
       style="fill:none;stroke:#000000;stroke-width:0.330729;stroke-linecap:round;stroke-linejoin:miter;stroke-miterlimit:10;stroke-dasharray:0, 0.863677;stroke-dashoffset:-0.165365;stroke-opacity:1"
       d="m 109.74465,115.48508 8.06351,0.80631" />
    <path
       inkscape:connector-curvature="0"
       id="path7013"
       style="fill:#000000;fill-opacity:1;fill-rule:nonzero;stroke:none;stroke-width:0.330729"
       d="m 109.74812,119.1694 c 0,-0.36393 -0.29504,-0.65898 -0.65898,-0.65898 -0.36393,0 -0.65897,0.29505 -0.65897,0.65898 0,0.36393 0.29504,0.65898 0.65897,0.65898 0.36394,0 0.65898,-0.29505 0.65898,-0.65898" />
    <path
       inkscape:connector-curvature="0"
       id="path7021"
       style="fill:none;stroke:#000000;stroke-width:0.330729;stroke-linecap:round;stroke-linejoin:miter;stroke-miterlimit:10;stroke-dasharray:0, 0.791189;stroke-dashoffset:-0.165365;stroke-opacity:1"
       d="m 100.36021,117.42381 8.08269,1.61627" />
    <path
       inkscape:connector-curvature="0"
       id="path7027"
       style="fill:#000000;fill-opacity:1;fill-rule:nonzero;stroke:none;stroke-width:0.330729"
       d="m 119.12297,118.23211 c 0,-0.36393 -0.29504,-0.65897 -0.65898,-0.65897 -0.36393,0 -0.65897,0.29504 -0.65897,0.65897 0,0.36394 0.29504,0.65898 0.65897,0.65898 0.36394,0 0.65898,-0.29504 0.65898,-0.65898" />
    <path
       inkscape:connector-curvature="0"
       id="path7035"
       style="fill:none;stroke:#000000;stroke-width:0.330729;stroke-linecap:round;stroke-linejoin:miter;stroke-miterlimit:10;stroke-dasharray:0, 0.863677;stroke-dashoffset:-0.165365;stroke-opacity:1"
       d="m 109.74465,119.10392 8.06351,-0.80632" />
    <path
       inkscape:connector-curvature="0"
       id="path7041"
       style="fill:#000000;fill-opacity:1;fill-rule:nonzero;stroke:none;stroke-width:0.330729"
       d="m 119.12297,120.10702 c 0,-0.36394 -0.29504,-0.65898 -0.65898,-0.65898 -0.36393,0 -0.65897,0.29504 -0.65897,0.65898 0,0.36393 0.29504,0.65898 0.65897,0.65898 0.36394,0 0.65898,-0.29505 0.65898,-0.65898" />
    <path
       inkscape:connector-curvature="0"
       id="path7049"
       style="fill:none;stroke:#000000;stroke-width:0.330729;stroke-linecap:round;stroke-linejoin:miter;stroke-miterlimit:10;stroke-dasharray:0, 0.863677;stroke-dashoffset:-0.165365;stroke-opacity:1"
       d="m 109.74465,119.23488 8.06351,0.80665" />
    <path
       inkscape:connector-curvature="0"
       id="path7055"
       style="fill:#000000;fill-opacity:1;fill-rule:nonzero;stroke:none;stroke-width:0.330729"
       d="m 100.37294,124.79444 c 0,-0.36393 -0.29504,-0.65898 -0.658975,-0.65898 -0.363934,0 -0.658978,0.29505 -0.658978,0.65898 0,0.36394 0.295044,0.65898 0.658978,0.65898 0.363935,0 0.658975,-0.29504 0.658975,-0.65898" />
    <path
       inkscape:connector-curvature="0"
       id="path7063"
       style="fill:none;stroke:#000000;stroke-width:0.330729;stroke-linecap:round;stroke-linejoin:miter;stroke-miterlimit:10;stroke-dasharray:0, 0.844852;stroke-dashoffset:-0.165365;stroke-opacity:1"
       d="m 90.950965,121.28904 8.151151,3.26066" />
    <path
       inkscape:connector-curvature="0"
       id="path7069"
       style="fill:#000000;fill-opacity:1;fill-rule:nonzero;stroke:none;stroke-width:0.330729"
       d="m 109.74812,122.91954 c 0,-0.36394 -0.29504,-0.65898 -0.65898,-0.65898 -0.36393,0 -0.65897,0.29504 -0.65897,0.65898 0,0.36393 0.29504,0.65898 0.65897,0.65898 0.36394,0 0.65898,-0.29505 0.65898,-0.65898" />
    <path
       inkscape:connector-curvature="0"
       id="path7077"
       style="fill:none;stroke:#000000;stroke-width:0.330729;stroke-linecap:round;stroke-linejoin:miter;stroke-miterlimit:10;stroke-dasharray:0, 0.791194;stroke-dashoffset:-0.165365;stroke-opacity:1"
       d="m 100.36021,124.66513 8.08269,-1.61661" />
    <path
       inkscape:connector-curvature="0"
       id="path7083"
       style="fill:#000000;fill-opacity:1;fill-rule:nonzero;stroke:none;stroke-width:0.330729"
       d="m 119.12297,121.98192 c 0,-0.36393 -0.29504,-0.65898 -0.65898,-0.65898 -0.36393,0 -0.65897,0.29505 -0.65897,0.65898 0,0.36393 0.29504,0.65898 0.65897,0.65898 0.36394,0 0.65898,-0.29505 0.65898,-0.65898" />
    <path
       inkscape:connector-curvature="0"
       id="path7091"
       style="fill:none;stroke:#000000;stroke-width:0.330729;stroke-linecap:round;stroke-linejoin:miter;stroke-miterlimit:10;stroke-dasharray:0, 0.863677;stroke-dashoffset:-0.165365;stroke-opacity:1"
       d="m 109.74465,122.85372 8.06351,-0.80632" />
    <path
       inkscape:connector-curvature="0"
       id="path7097"
       style="fill:#000000;fill-opacity:1;fill-rule:nonzero;stroke:none;stroke-width:0.330729"
       d="m 119.12297,123.85682 c 0,-0.36393 -0.29504,-0.65897 -0.65898,-0.65897 -0.36393,0 -0.65897,0.29504 -0.65897,0.65897 0,0.36394 0.29504,0.65898 0.65897,0.65898 0.36394,0 0.65898,-0.29504 0.65898,-0.65898" />
    <path
       inkscape:connector-curvature="0"
       id="path7105"
       style="fill:none;stroke:#000000;stroke-width:0.330729;stroke-linecap:round;stroke-linejoin:miter;stroke-miterlimit:10;stroke-dasharray:0, 0.863677;stroke-dashoffset:-0.165365;stroke-opacity:1"
       d="m 109.74465,122.98502 8.06351,0.80632" />
    <path
       inkscape:connector-curvature="0"
       id="path7111"
       style="fill:#000000;fill-opacity:1;fill-rule:nonzero;stroke:none;stroke-width:0.330729"
       d="m 109.74812,126.66935 c 0,-0.36394 -0.29504,-0.65898 -0.65898,-0.65898 -0.36393,0 -0.65897,0.29504 -0.65897,0.65898 0,0.36393 0.29504,0.65897 0.65897,0.65897 0.36394,0 0.65898,-0.29504 0.65898,-0.65897" />
    <path
       inkscape:connector-curvature="0"
       id="path7119"
       style="fill:none;stroke:#000000;stroke-width:0.330729;stroke-linecap:round;stroke-linejoin:miter;stroke-miterlimit:10;stroke-dasharray:0, 0.791194;stroke-dashoffset:-0.165365;stroke-opacity:1"
       d="m 100.36021,124.92343 8.08269,1.6166" />
    <path
       inkscape:connector-curvature="0"
       id="path7125"
       style="fill:#000000;fill-opacity:1;fill-rule:nonzero;stroke:none;stroke-width:0.330729"
       d="m 119.12297,125.73173 c 0,-0.36394 -0.29504,-0.65898 -0.65898,-0.65898 -0.36393,0 -0.65897,0.29504 -0.65897,0.65898 0,0.36393 0.29504,0.65898 0.65897,0.65898 0.36394,0 0.65898,-0.29505 0.65898,-0.65898" />
    <path
       inkscape:connector-curvature="0"
       id="path7133"
       style="fill:none;stroke:#000000;stroke-width:0.330729;stroke-linecap:round;stroke-linejoin:miter;stroke-miterlimit:10;stroke-dasharray:0, 0.863677;stroke-dashoffset:-0.165365;stroke-opacity:1"
       d="m 109.74465,126.60386 8.06351,-0.80632" />
    <path
       inkscape:connector-curvature="0"
       id="path7139"
       style="fill:#000000;fill-opacity:1;fill-rule:nonzero;stroke:none;stroke-width:0.330729"
       d="m 119.12297,127.60696 c 0,-0.36393 -0.29504,-0.65897 -0.65898,-0.65897 -0.36393,0 -0.65897,0.29504 -0.65897,0.65897 0,0.36394 0.29504,0.65898 0.65897,0.65898 0.36394,0 0.65898,-0.29504 0.65898,-0.65898" />
    <text
       id="text7149"
       y="92.718597"
       x="98.457855"
       style="font-style:normal;font-variant:normal;font-weight:normal;font-stretch:normal;font-size:3.96875px;line-height:0%;font-family:Chalkduster;-inkscape-font-specification:'Chalkduster, Normal';text-align:start;letter-spacing:0px;word-spacing:0px;writing-mode:lr-tb;text-anchor:start;fill:#000000;fill-opacity:1;stroke:none;stroke-width:0.330729px;stroke-linecap:butt;stroke-linejoin:miter;stroke-opacity:1"
       xml:space="preserve"><tspan
         style="font-style:italic;font-variant:normal;font-weight:normal;font-stretch:normal;font-size:5.29167px;line-height:1.25;font-family:'Linux Libertine O';-inkscape-font-specification:'Linux Libertine O Italic';stroke-width:0.330729px"
         y="92.718597"
         x="98.457855"
         id="tspan7151"
         sodipodi:role="line">i<tspan
   id="tspan7153"
   style="font-size:2.75167px;baseline-shift:sub;stroke-width:0.330729px">c</tspan></tspan></text>
    <path
       inkscape:connector-curvature="0"
       id="path7147"
       style="fill:none;stroke:#000000;stroke-width:0.330729;stroke-linecap:round;stroke-linejoin:miter;stroke-miterlimit:10;stroke-dasharray:0, 0.863677;stroke-dashoffset:-0.165365;stroke-opacity:1"
       d="m 109.74465,126.73483 8.06351,0.80632" />
  </g>
</svg>
