<?xml version="1.0" encoding="UTF-8" standalone="no"?>
<svg
   xmlns:dc="http://purl.org/dc/elements/1.1/"
   xmlns:cc="http://creativecommons.org/ns#"
   xmlns:rdf="http://www.w3.org/1999/02/22-rdf-syntax-ns#"
   xmlns:svg="http://www.w3.org/2000/svg"
   xmlns="http://www.w3.org/2000/svg"
   xmlns:sodipodi="http://sodipodi.sourceforge.net/DTD/sodipodi-0.dtd"
   xmlns:inkscape="http://www.inkscape.org/namespaces/inkscape"
   width="210mm"
   height="297mm"
   viewBox="0 0 210 297"
   version="1.1"
   id="svg796"
   inkscape:version="1.0.1 (c497b03c, 2020-09-10)"
   sodipodi:docname="Kilu2.svg">
  <defs
     id="defs790" />
  <sodipodi:namedview
     id="base"
     pagecolor="#ffffff"
     bordercolor="#666666"
     borderopacity="1.0"
     inkscape:pageopacity="0.0"
     inkscape:pageshadow="2"
     inkscape:zoom="0.35"
     inkscape:cx="400"
     inkscape:cy="560"
     inkscape:document-units="mm"
     inkscape:current-layer="layer1"
     inkscape:document-rotation="0"
     showgrid="false"
     inkscape:window-width="1252"
     inkscape:window-height="855"
     inkscape:window-x="0"
     inkscape:window-y="23"
     inkscape:window-maximized="0" />
  <metadata
     id="metadata793">
    <rdf:RDF>
      <cc:Work
         rdf:about="">
        <dc:format>image/svg+xml</dc:format>
        <dc:type
           rdf:resource="http://purl.org/dc/dcmitype/StillImage" />
        <dc:title></dc:title>
      </cc:Work>
    </rdf:RDF>
  </metadata>
  <g
     inkscape:label="Layer 1"
     inkscape:groupmode="layer"
     id="layer1">
    <path
       style="opacity:1;fill:#9dac93;fill-opacity:1;fill-rule:evenodd;stroke:none;stroke-width:0.661458;stroke-linecap:round;stroke-linejoin:miter;stroke-miterlimit:4;stroke-dasharray:none;stroke-dashoffset:0;stroke-opacity:1"
       d="m 94.667032,45.010766 c 1.56521,-0.3965 8.291618,3.37041 9.989088,2.96973 1.72771,-0.40781 2.44975,-6.65965 4.04963,-7.37932 1.75681,-0.79027 13.36096,-2.03998 13.40879,-1.1699 0.0478,0.87008 1.33892,37.52308 1.16989,39.23644 -0.93018,0.63792 -10.12562,0.41771 -11.96892,0 -2.01905,-0.45754 -19.182168,-5.60083 -20.698108,-6.6594 -1.36258,-0.95148 -9.90635,-9.28943 -9.80911,-11.06899 0.10412,-1.90568 12.80295,-15.6611 13.85874,-15.92856 z"
       id="path28222"
       inkscape:connector-curvature="0"
       sodipodi:nodetypes="ssszcssss" />
    <path
       d="m 83.885652,61.081896 c 0,-0.32756 -0.26554,-0.5931 -0.59309,-0.5931 -0.32756,0 -0.5931,0.26554 -0.5931,0.5931 0,0.32755 0.26554,0.59309 0.5931,0.59309 0.32755,0 0.59309,-0.26554 0.59309,-0.59309"
       style="fill:#000000;fill-opacity:1;fill-rule:nonzero;stroke:none;stroke-width:0.330729"
       id="path26801"
       inkscape:connector-curvature="0" />
    <path
       d="m 93.326712,51.707046 c 0,-0.36394 -0.29504,-0.65898 -0.65898,-0.65898 -0.36393,0 -0.65897,0.29504 -0.65897,0.65898 0,0.36393 0.29504,0.65897 0.65897,0.65897 0.36394,0 0.65898,-0.29504 0.65898,-0.65897"
       style="fill:#000000;fill-opacity:1;fill-rule:nonzero;stroke:none;stroke-width:0.330729"
       id="path26811"
       inkscape:connector-curvature="0" />
    <path
       d="m 83.711922,60.662526 8.48982,-8.48949"
       style="fill:none;stroke:#000000;stroke-width:0.330729;stroke-linecap:butt;stroke-linejoin:miter;stroke-miterlimit:10;stroke-dasharray:none;stroke-opacity:1"
       id="path26823"
       inkscape:connector-curvature="0" />
    <path
       d="m 102.70156,44.207426 c 0,-0.36393 -0.29504,-0.65898 -0.65898,-0.65898 -0.36393,0 -0.65897,0.29505 -0.65897,0.65898 0,0.36394 0.29504,0.65898 0.65897,0.65898 0.36394,0 0.65898,-0.29504 0.65898,-0.65898"
       style="fill:#ffffff;fill-opacity:1;fill-rule:nonzero;stroke:none;stroke-width:0.330729"
       id="path26833"
       inkscape:connector-curvature="0" />
    <path
       d="m 102.70156,44.207426 c 0,-0.36393 -0.29504,-0.65898 -0.65898,-0.65898 -0.36393,0 -0.65897,0.29505 -0.65897,0.65898 0,0.36394 0.29504,0.65898 0.65897,0.65898 0.36394,0 0.65898,-0.29504 0.65898,-0.65898 z m 0,0 h -0.13179 c 0,-0.29117 -0.23601,-0.52718 -0.52719,-0.52718 -0.29117,0 -0.52718,0.23601 -0.52718,0.52718 0,0.29118 0.23601,0.52718 0.52718,0.52718 0.29118,0 0.52719,-0.236 0.52719,-0.52718"
       style="fill:#000000;fill-opacity:1;fill-rule:evenodd;stroke:none;stroke-width:0.330729"
       id="path26835"
       inkscape:connector-curvature="0" />
    <path
       d="m 93.182352,51.295616 8.345618,-6.67676"
       style="fill:none;stroke:#000000;stroke-width:0.330729;stroke-linecap:butt;stroke-linejoin:miter;stroke-miterlimit:10;stroke-dasharray:none;stroke-opacity:1"
       id="path26867"
       inkscape:connector-curvature="0" />
    <path
       d="m 112.07674,42.332196 c 0,-0.36394 -0.29504,-0.65898 -0.65898,-0.65898 -0.36393,0 -0.65897,0.29504 -0.65897,0.65898 0,0.36393 0.29504,0.65898 0.65897,0.65898 0.36394,0 0.65898,-0.29505 0.65898,-0.65898"
       style="fill:#000000;fill-opacity:1;fill-rule:nonzero;stroke:none;stroke-width:0.330729"
       id="path26877"
       inkscape:connector-curvature="0" />
    <path
       d="m 102.68883,44.078116 8.08269,-1.61661"
       style="fill:none;stroke:#000000;stroke-width:0.330729;stroke-linecap:butt;stroke-linejoin:miter;stroke-miterlimit:10;stroke-dasharray:1.96253, 1.17752, 0, 0;stroke-dashoffset:0;stroke-opacity:1"
       id="path26889"
       inkscape:connector-curvature="0" />
    <path
       d="m 121.45159,41.394906 c 0,-0.36393 -0.29504,-0.65898 -0.65898,-0.65898 -0.36393,0 -0.65898,0.29505 -0.65898,0.65898 0,0.36394 0.29505,0.65898 0.65898,0.65898 0.36394,0 0.65898,-0.29504 0.65898,-0.65898"
       style="fill:#000000;fill-opacity:1;fill-rule:nonzero;stroke:none;stroke-width:0.330729"
       id="path26899"
       inkscape:connector-curvature="0" />
    <path
       d="m 112.07327,42.266706 8.0635,-0.80631"
       style="fill:none;stroke:#000000;stroke-width:0.330729;stroke-linecap:butt;stroke-linejoin:miter;stroke-miterlimit:10;stroke-dasharray:1.92948, 1.15769, 0, 0;stroke-dashoffset:0;stroke-opacity:1"
       id="path26911"
       inkscape:connector-curvature="0" />
    <path
       d="m 121.45159,43.269816 c 0,-0.36394 -0.29504,-0.65898 -0.65898,-0.65898 -0.36393,0 -0.65898,0.29504 -0.65898,0.65898 0,0.36393 0.29505,0.65897 0.65898,0.65897 0.36394,0 0.65898,-0.29504 0.65898,-0.65897"
       style="fill:#000000;fill-opacity:1;fill-rule:nonzero;stroke:none;stroke-width:0.330729"
       id="path26921"
       inkscape:connector-curvature="0" />
    <path
       d="m 112.07327,42.398006 8.0635,0.80599"
       style="fill:none;stroke:#000000;stroke-width:0.330729;stroke-linecap:butt;stroke-linejoin:miter;stroke-miterlimit:10;stroke-dasharray:1.92948, 1.15768, 0, 0;stroke-dashoffset:0;stroke-opacity:1"
       id="path26933"
       inkscape:connector-curvature="0" />
    <path
       d="m 112.07674,46.082336 c 0,-0.36394 -0.29504,-0.65898 -0.65898,-0.65898 -0.36393,0 -0.65897,0.29504 -0.65897,0.65898 0,0.36393 0.29504,0.65897 0.65897,0.65897 0.36394,0 0.65898,-0.29504 0.65898,-0.65897"
       style="fill:#000000;fill-opacity:1;fill-rule:nonzero;stroke:none;stroke-width:0.330729"
       id="path26943"
       inkscape:connector-curvature="0" />
    <path
       d="m 102.68883,44.336416 8.08269,1.6166"
       style="fill:none;stroke:#000000;stroke-width:0.330729;stroke-linecap:butt;stroke-linejoin:miter;stroke-miterlimit:10;stroke-dasharray:1.96253, 1.17752, 0, 0;stroke-dashoffset:0;stroke-opacity:1"
       id="path26955"
       inkscape:connector-curvature="0" />
    <path
       d="m 121.45159,45.144716 c 0,-0.36394 -0.29504,-0.65898 -0.65898,-0.65898 -0.36393,0 -0.65898,0.29504 -0.65898,0.65898 0,0.36393 0.29505,0.65898 0.65898,0.65898 0.36394,0 0.65898,-0.29505 0.65898,-0.65898"
       style="fill:#000000;fill-opacity:1;fill-rule:nonzero;stroke:none;stroke-width:0.330729"
       id="path26965"
       inkscape:connector-curvature="0" />
    <path
       d="m 112.07327,46.016516 8.0635,-0.80632"
       style="fill:none;stroke:#000000;stroke-width:0.330729;stroke-linecap:butt;stroke-linejoin:miter;stroke-miterlimit:10;stroke-dasharray:1.92948, 1.15768, 0, 0;stroke-dashoffset:0;stroke-opacity:1"
       id="path26977"
       inkscape:connector-curvature="0" />
    <path
       d="m 121.45159,47.019616 c 0,-0.36393 -0.29504,-0.65898 -0.65898,-0.65898 -0.36393,0 -0.65898,0.29505 -0.65898,0.65898 0,0.36394 0.29505,0.65898 0.65898,0.65898 0.36394,0 0.65898,-0.29504 0.65898,-0.65898"
       style="fill:#000000;fill-opacity:1;fill-rule:nonzero;stroke:none;stroke-width:0.330729"
       id="path26987"
       inkscape:connector-curvature="0" />
    <path
       d="m 112.07327,46.147816 8.0635,0.80632"
       style="fill:none;stroke:#000000;stroke-width:0.330729;stroke-linecap:butt;stroke-linejoin:miter;stroke-miterlimit:10;stroke-dasharray:1.92948, 1.15769, 0, 0;stroke-dashoffset:0;stroke-opacity:1"
       id="path26999"
       inkscape:connector-curvature="0" />
    <path
       d="m 102.70156,51.707046 c 0,-0.36394 -0.29504,-0.65898 -0.65898,-0.65898 -0.36393,0 -0.65897,0.29504 -0.65897,0.65898 0,0.36393 0.29504,0.65897 0.65897,0.65897 0.36394,0 0.65898,-0.29504 0.65898,-0.65897"
       style="fill:#000000;fill-opacity:1;fill-rule:nonzero;stroke:none;stroke-width:0.330729"
       id="path27009"
       inkscape:connector-curvature="0" />
    <path
       d="m 93.326552,51.707046 h 8.057218"
       style="fill:none;stroke:#000000;stroke-width:0.330729;stroke-linecap:round;stroke-linejoin:miter;stroke-miterlimit:10;stroke-dasharray:0, 0.858475;stroke-dashoffset:-0.165365;stroke-opacity:1"
       id="path27021"
       inkscape:connector-curvature="0" />
    <path
       d="m 112.07674,49.832136 c 0,-0.36393 -0.29504,-0.65897 -0.65898,-0.65897 -0.36393,0 -0.65897,0.29504 -0.65897,0.65897 0,0.36394 0.29504,0.65898 0.65897,0.65898 0.36394,0 0.65898,-0.29504 0.65898,-0.65898"
       style="fill:#000000;fill-opacity:1;fill-rule:nonzero;stroke:none;stroke-width:0.330729"
       id="path27031"
       inkscape:connector-curvature="0" />
    <path
       d="m 102.68883,51.578056 8.08269,-1.6166"
       style="fill:none;stroke:#000000;stroke-width:0.330729;stroke-linecap:round;stroke-linejoin:miter;stroke-miterlimit:10;stroke-dasharray:0, 0.791194;stroke-dashoffset:-0.165365;stroke-opacity:1"
       id="path27043"
       inkscape:connector-curvature="0" />
    <path
       d="m 121.45159,48.894526 c 0,-0.36394 -0.29504,-0.65898 -0.65898,-0.65898 -0.36393,0 -0.65898,0.29504 -0.65898,0.65898 0,0.36393 0.29505,0.65897 0.65898,0.65897 0.36394,0 0.65898,-0.29504 0.65898,-0.65897"
       style="fill:#000000;fill-opacity:1;fill-rule:nonzero;stroke:none;stroke-width:0.330729"
       id="path27053"
       inkscape:connector-curvature="0" />
    <path
       d="m 112.07327,49.766656 8.0635,-0.80632"
       style="fill:none;stroke:#000000;stroke-width:0.330729;stroke-linecap:round;stroke-linejoin:miter;stroke-miterlimit:10;stroke-dasharray:0, 0.863677;stroke-dashoffset:-0.165365;stroke-opacity:1"
       id="path27065"
       inkscape:connector-curvature="0" />
    <path
       d="m 121.45159,50.769756 c 0,-0.36393 -0.29504,-0.65898 -0.65898,-0.65898 -0.36393,0 -0.65898,0.29505 -0.65898,0.65898 0,0.36393 0.29505,0.65898 0.65898,0.65898 0.36394,0 0.65898,-0.29505 0.65898,-0.65898"
       style="fill:#000000;fill-opacity:1;fill-rule:nonzero;stroke:none;stroke-width:0.330729"
       id="path27075"
       inkscape:connector-curvature="0" />
    <path
       d="m 112.07327,49.897626 8.0635,0.80632"
       style="fill:none;stroke:#000000;stroke-width:0.330729;stroke-linecap:round;stroke-linejoin:miter;stroke-miterlimit:10;stroke-dasharray:0, 0.863677;stroke-dashoffset:-0.165365;stroke-opacity:1"
       id="path27087"
       inkscape:connector-curvature="0" />
    <path
       d="m 112.07674,53.581946 c 0,-0.36393 -0.29504,-0.65898 -0.65898,-0.65898 -0.36393,0 -0.65897,0.29505 -0.65897,0.65898 0,0.36394 0.29504,0.65898 0.65897,0.65898 0.36394,0 0.65898,-0.29504 0.65898,-0.65898"
       style="fill:#000000;fill-opacity:1;fill-rule:nonzero;stroke:none;stroke-width:0.330729"
       id="path27097"
       inkscape:connector-curvature="0" />
    <path
       d="m 102.68883,51.836356 8.08269,1.61661"
       style="fill:none;stroke:#000000;stroke-width:0.330729;stroke-linecap:round;stroke-linejoin:miter;stroke-miterlimit:10;stroke-dasharray:0, 0.791189;stroke-dashoffset:-0.165365;stroke-opacity:1"
       id="path27109"
       inkscape:connector-curvature="0" />
    <path
       d="m 121.45159,52.644656 c 0,-0.36393 -0.29504,-0.65897 -0.65898,-0.65897 -0.36393,0 -0.65898,0.29504 -0.65898,0.65897 0,0.36394 0.29505,0.65898 0.65898,0.65898 0.36394,0 0.65898,-0.29504 0.65898,-0.65898"
       style="fill:#000000;fill-opacity:1;fill-rule:nonzero;stroke:none;stroke-width:0.330729"
       id="path27119"
       inkscape:connector-curvature="0" />
    <path
       d="m 112.07327,53.516466 8.0635,-0.80632"
       style="fill:none;stroke:#000000;stroke-width:0.330729;stroke-linecap:round;stroke-linejoin:miter;stroke-miterlimit:10;stroke-dasharray:0, 0.863677;stroke-dashoffset:-0.165365;stroke-opacity:1"
       id="path27131"
       inkscape:connector-curvature="0" />
    <path
       d="m 121.45159,54.519566 c 0,-0.36394 -0.29504,-0.65898 -0.65898,-0.65898 -0.36393,0 -0.65898,0.29504 -0.65898,0.65898 0,0.36393 0.29505,0.65898 0.65898,0.65898 0.36394,0 0.65898,-0.29505 0.65898,-0.65898"
       style="fill:#000000;fill-opacity:1;fill-rule:nonzero;stroke:none;stroke-width:0.330729"
       id="path27141"
       inkscape:connector-curvature="0" />
    <path
       d="m 112.07327,53.647766 8.0635,0.80631"
       style="fill:none;stroke:#000000;stroke-width:0.330729;stroke-linecap:round;stroke-linejoin:miter;stroke-miterlimit:10;stroke-dasharray:0, 0.863677;stroke-dashoffset:-0.165365;stroke-opacity:1"
       id="path27153"
       inkscape:connector-curvature="0" />
    <path
       d="m 102.70156,59.206986 c 0,-0.36393 -0.29504,-0.65898 -0.65898,-0.65898 -0.36393,0 -0.65897,0.29505 -0.65897,0.65898 0,0.36394 0.29504,0.65898 0.65897,0.65898 0.36394,0 0.65898,-0.29504 0.65898,-0.65898"
       style="fill:#000000;fill-opacity:1;fill-rule:nonzero;stroke:none;stroke-width:0.330729"
       id="path27163"
       inkscape:connector-curvature="0" />
    <path
       d="m 93.182352,52.118796 8.345618,6.67643"
       style="fill:none;stroke:#000000;stroke-width:0.330729;stroke-linecap:round;stroke-linejoin:miter;stroke-miterlimit:10;stroke-dasharray:0, 0.796697;stroke-dashoffset:-0.165365;stroke-opacity:1"
       id="path27175"
       inkscape:connector-curvature="0" />
    <path
       d="m 112.07674,57.332086 c 0,-0.36394 -0.29504,-0.65898 -0.65898,-0.65898 -0.36393,0 -0.65897,0.29504 -0.65897,0.65898 0,0.36393 0.29504,0.65898 0.65897,0.65898 0.36394,0 0.65898,-0.29505 0.65898,-0.65898"
       style="fill:#000000;fill-opacity:1;fill-rule:nonzero;stroke:none;stroke-width:0.330729"
       id="path27185"
       inkscape:connector-curvature="0" />
    <path
       d="m 102.68883,59.077676 8.08269,-1.61628"
       style="fill:none;stroke:#000000;stroke-width:0.330729;stroke-linecap:round;stroke-linejoin:miter;stroke-miterlimit:10;stroke-dasharray:0, 0.791189;stroke-dashoffset:-0.165365;stroke-opacity:1"
       id="path27197"
       inkscape:connector-curvature="0" />
    <path
       d="m 121.45159,56.394466 c 0,-0.36393 -0.29504,-0.65898 -0.65898,-0.65898 -0.36393,0 -0.65898,0.29505 -0.65898,0.65898 0,0.36394 0.29505,0.65898 0.65898,0.65898 0.36394,0 0.65898,-0.29504 0.65898,-0.65898"
       style="fill:#000000;fill-opacity:1;fill-rule:nonzero;stroke:none;stroke-width:0.330729"
       id="path27207"
       inkscape:connector-curvature="0" />
    <path
       d="m 112.07327,57.266596 8.0635,-0.80631"
       style="fill:none;stroke:#000000;stroke-width:0.330729;stroke-linecap:round;stroke-linejoin:miter;stroke-miterlimit:10;stroke-dasharray:0, 0.863677;stroke-dashoffset:-0.165365;stroke-opacity:1"
       id="path27219"
       inkscape:connector-curvature="0" />
    <path
       d="m 121.45159,58.269376 c 0,-0.36394 -0.29504,-0.65898 -0.65898,-0.65898 -0.36393,0 -0.65898,0.29504 -0.65898,0.65898 0,0.36393 0.29505,0.65897 0.65898,0.65897 0.36394,0 0.65898,-0.29504 0.65898,-0.65897"
       style="fill:#000000;fill-opacity:1;fill-rule:nonzero;stroke:none;stroke-width:0.330729"
       id="path27229"
       inkscape:connector-curvature="0" />
    <path
       d="m 112.07327,57.397566 8.0635,0.80632"
       style="fill:none;stroke:#000000;stroke-width:0.330729;stroke-linecap:round;stroke-linejoin:miter;stroke-miterlimit:10;stroke-dasharray:0, 0.863677;stroke-dashoffset:-0.165365;stroke-opacity:1"
       id="path27241"
       inkscape:connector-curvature="0" />
    <path
       d="m 112.07674,61.081896 c 0,-0.36394 -0.29504,-0.65898 -0.65898,-0.65898 -0.36393,0 -0.65897,0.29504 -0.65897,0.65898 0,0.36393 0.29504,0.65897 0.65897,0.65897 0.36394,0 0.65898,-0.29504 0.65898,-0.65897"
       style="fill:#000000;fill-opacity:1;fill-rule:nonzero;stroke:none;stroke-width:0.330729"
       id="path27251"
       inkscape:connector-curvature="0" />
    <path
       d="m 102.68883,59.336306 8.08269,1.6166"
       style="fill:none;stroke:#000000;stroke-width:0.330729;stroke-linecap:round;stroke-linejoin:miter;stroke-miterlimit:10;stroke-dasharray:0, 0.791194;stroke-dashoffset:-0.165365;stroke-opacity:1"
       id="path27263"
       inkscape:connector-curvature="0" />
    <path
       d="m 121.45159,60.144606 c 0,-0.36393 -0.29504,-0.65898 -0.65898,-0.65898 -0.36393,0 -0.65898,0.29505 -0.65898,0.65898 0,0.36393 0.29505,0.65898 0.65898,0.65898 0.36394,0 0.65898,-0.29505 0.65898,-0.65898"
       style="fill:#000000;fill-opacity:1;fill-rule:nonzero;stroke:none;stroke-width:0.330729"
       id="path27273"
       inkscape:connector-curvature="0" />
    <path
       d="m 112.07327,61.016406 8.0635,-0.80632"
       style="fill:none;stroke:#000000;stroke-width:0.330729;stroke-linecap:round;stroke-linejoin:miter;stroke-miterlimit:10;stroke-dasharray:0, 0.863677;stroke-dashoffset:-0.165365;stroke-opacity:1"
       id="path27285"
       inkscape:connector-curvature="0" />
    <path
       d="m 121.45159,62.019506 c 0,-0.36393 -0.29504,-0.65897 -0.65898,-0.65897 -0.36393,0 -0.65898,0.29504 -0.65898,0.65897 0,0.36394 0.29505,0.65898 0.65898,0.65898 0.36394,0 0.65898,-0.29504 0.65898,-0.65898"
       style="fill:#000000;fill-opacity:1;fill-rule:nonzero;stroke:none;stroke-width:0.330729"
       id="path27295"
       inkscape:connector-curvature="0" />
    <path
       d="m 112.07327,61.147376 8.0635,0.80665"
       style="fill:none;stroke:#000000;stroke-width:0.330729;stroke-linecap:round;stroke-linejoin:miter;stroke-miterlimit:10;stroke-dasharray:0, 0.863677;stroke-dashoffset:-0.165365;stroke-opacity:1"
       id="path27307"
       inkscape:connector-curvature="0" />
    <path
       d="m 93.326712,70.456746 c 0,-0.36394 -0.29504,-0.65898 -0.65898,-0.65898 -0.36393,0 -0.65897,0.29504 -0.65897,0.65898 0,0.36393 0.29504,0.65897 0.65897,0.65897 0.36394,0 0.65898,-0.29504 0.65898,-0.65897"
       style="fill:#000000;fill-opacity:1;fill-rule:nonzero;stroke:none;stroke-width:0.330729"
       id="path27317"
       inkscape:connector-curvature="0" />
    <path
       d="m 83.711922,61.501256 8.48982,8.48949"
       style="fill:none;stroke:#000000;stroke-width:0.330729;stroke-linecap:round;stroke-linejoin:miter;stroke-miterlimit:10;stroke-dasharray:0, 0.833956;stroke-dashoffset:-0.165365;stroke-opacity:1"
       id="path27329"
       inkscape:connector-curvature="0" />
    <path
       d="m 102.70156,66.706936 c 0,-0.36394 -0.29504,-0.65898 -0.65898,-0.65898 -0.36393,0 -0.65897,0.29504 -0.65897,0.65898 0,0.36393 0.29504,0.65897 0.65897,0.65897 0.36394,0 0.65898,-0.29504 0.65898,-0.65897"
       style="fill:#000000;fill-opacity:1;fill-rule:nonzero;stroke:none;stroke-width:0.330729"
       id="path27339"
       inkscape:connector-curvature="0" />
    <path
       d="m 93.279582,70.212006 8.151148,-3.26033"
       style="fill:none;stroke:#000000;stroke-width:0.330729;stroke-linecap:round;stroke-linejoin:miter;stroke-miterlimit:10;stroke-dasharray:0, 0.844844;stroke-dashoffset:-0.165365;stroke-opacity:1"
       id="path27351"
       inkscape:connector-curvature="0" />
    <path
       d="m 112.07674,64.832026 c 0,-0.36393 -0.29504,-0.65897 -0.65898,-0.65897 -0.36393,0 -0.65897,0.29504 -0.65897,0.65897 0,0.36394 0.29504,0.65898 0.65897,0.65898 0.36394,0 0.65898,-0.29504 0.65898,-0.65898"
       style="fill:#000000;fill-opacity:1;fill-rule:nonzero;stroke:none;stroke-width:0.330729"
       id="path27361"
       inkscape:connector-curvature="0" />
    <path
       d="m 102.68883,66.577616 8.08269,-1.61627"
       style="fill:none;stroke:#000000;stroke-width:0.330729;stroke-linecap:round;stroke-linejoin:miter;stroke-miterlimit:10;stroke-dasharray:0, 0.791189;stroke-dashoffset:-0.165365;stroke-opacity:1"
       id="path27373"
       inkscape:connector-curvature="0" />
    <path
       d="m 121.45159,63.894416 c 0,-0.36394 -0.29504,-0.65898 -0.65898,-0.65898 -0.36393,0 -0.65898,0.29504 -0.65898,0.65898 0,0.36393 0.29505,0.65897 0.65898,0.65897 0.36394,0 0.65898,-0.29504 0.65898,-0.65897"
       style="fill:#000000;fill-opacity:1;fill-rule:nonzero;stroke:none;stroke-width:0.330729"
       id="path27383"
       inkscape:connector-curvature="0" />
    <path
       d="m 112.07327,64.766546 8.0635,-0.80665"
       style="fill:none;stroke:#000000;stroke-width:0.330729;stroke-linecap:round;stroke-linejoin:miter;stroke-miterlimit:10;stroke-dasharray:0, 0.863677;stroke-dashoffset:-0.165365;stroke-opacity:1"
       id="path27395"
       inkscape:connector-curvature="0" />
    <path
       d="m 121.45159,65.769316 c 0,-0.36393 -0.29504,-0.65898 -0.65898,-0.65898 -0.36393,0 -0.65898,0.29505 -0.65898,0.65898 0,0.36394 0.29505,0.65898 0.65898,0.65898 0.36394,0 0.65898,-0.29504 0.65898,-0.65898"
       style="fill:#000000;fill-opacity:1;fill-rule:nonzero;stroke:none;stroke-width:0.330729"
       id="path27405"
       inkscape:connector-curvature="0" />
    <path
       d="m 112.07327,64.897516 8.0635,0.80632"
       style="fill:none;stroke:#000000;stroke-width:0.330729;stroke-linecap:round;stroke-linejoin:miter;stroke-miterlimit:10;stroke-dasharray:0, 0.863677;stroke-dashoffset:-0.165365;stroke-opacity:1"
       id="path27417"
       inkscape:connector-curvature="0" />
    <path
       d="m 112.07674,68.581836 c 0,-0.36393 -0.29504,-0.65898 -0.65898,-0.65898 -0.36393,0 -0.65897,0.29505 -0.65897,0.65898 0,0.36394 0.29504,0.65898 0.65897,0.65898 0.36394,0 0.65898,-0.29504 0.65898,-0.65898"
       style="fill:#000000;fill-opacity:1;fill-rule:nonzero;stroke:none;stroke-width:0.330729"
       id="path27427"
       inkscape:connector-curvature="0" />
    <path
       d="m 102.68883,66.836246 8.08269,1.61628"
       style="fill:none;stroke:#000000;stroke-width:0.330729;stroke-linecap:round;stroke-linejoin:miter;stroke-miterlimit:10;stroke-dasharray:0, 0.791189;stroke-dashoffset:-0.165365;stroke-opacity:1"
       id="path27439"
       inkscape:connector-curvature="0" />
    <path
       d="m 121.45159,67.644556 c 0,-0.36394 -0.29504,-0.65898 -0.65898,-0.65898 -0.36393,0 -0.65898,0.29504 -0.65898,0.65898 0,0.36393 0.29505,0.65897 0.65898,0.65897 0.36394,0 0.65898,-0.29504 0.65898,-0.65897"
       style="fill:#000000;fill-opacity:1;fill-rule:nonzero;stroke:none;stroke-width:0.330729"
       id="path27449"
       inkscape:connector-curvature="0" />
    <path
       d="m 112.07327,68.516356 8.0635,-0.80632"
       style="fill:none;stroke:#000000;stroke-width:0.330729;stroke-linecap:round;stroke-linejoin:miter;stroke-miterlimit:10;stroke-dasharray:0, 0.863677;stroke-dashoffset:-0.165365;stroke-opacity:1"
       id="path27461"
       inkscape:connector-curvature="0" />
    <path
       d="m 121.45159,69.519456 c 0,-0.36394 -0.29504,-0.65898 -0.65898,-0.65898 -0.36393,0 -0.65898,0.29504 -0.65898,0.65898 0,0.36393 0.29505,0.65898 0.65898,0.65898 0.36394,0 0.65898,-0.29505 0.65898,-0.65898"
       style="fill:#000000;fill-opacity:1;fill-rule:nonzero;stroke:none;stroke-width:0.330729"
       id="path27471"
       inkscape:connector-curvature="0" />
    <path
       d="m 112.07327,68.647326 8.0635,0.80664"
       style="fill:none;stroke:#000000;stroke-width:0.330729;stroke-linecap:round;stroke-linejoin:miter;stroke-miterlimit:10;stroke-dasharray:0, 0.863677;stroke-dashoffset:-0.165365;stroke-opacity:1"
       id="path27483"
       inkscape:connector-curvature="0" />
    <path
       d="m 102.70156,74.206876 c 0,-0.36393 -0.29504,-0.65898 -0.65898,-0.65898 -0.36393,0 -0.65897,0.29505 -0.65897,0.65898 0,0.36394 0.29504,0.65898 0.65897,0.65898 0.36394,0 0.65898,-0.29504 0.65898,-0.65898"
       style="fill:#000000;fill-opacity:1;fill-rule:nonzero;stroke:none;stroke-width:0.330729"
       id="path27493"
       inkscape:connector-curvature="0" />
    <path
       d="m 93.279582,70.701486 8.151148,3.26065"
       style="fill:none;stroke:#000000;stroke-width:0.330729;stroke-linecap:round;stroke-linejoin:miter;stroke-miterlimit:10;stroke-dasharray:0, 0.844852;stroke-dashoffset:-0.165365;stroke-opacity:1"
       id="path27505"
       inkscape:connector-curvature="0" />
    <path
       d="m 112.07674,72.331976 c 0,-0.36393 -0.29504,-0.65898 -0.65898,-0.65898 -0.36393,0 -0.65897,0.29505 -0.65897,0.65898 0,0.36393 0.29504,0.65898 0.65897,0.65898 0.36394,0 0.65898,-0.29505 0.65898,-0.65898"
       style="fill:#000000;fill-opacity:1;fill-rule:nonzero;stroke:none;stroke-width:0.330729"
       id="path27515"
       inkscape:connector-curvature="0" />
    <path
       d="m 102.68883,74.077566 8.08269,-1.61661"
       style="fill:none;stroke:#000000;stroke-width:0.330729;stroke-linecap:round;stroke-linejoin:miter;stroke-miterlimit:10;stroke-dasharray:0, 0.791194;stroke-dashoffset:-0.165365;stroke-opacity:1"
       id="path27527"
       inkscape:connector-curvature="0" />
    <path
       d="m 121.45159,71.394356 c 0,-0.36393 -0.29504,-0.65898 -0.65898,-0.65898 -0.36393,0 -0.65898,0.29505 -0.65898,0.65898 0,0.36394 0.29505,0.65898 0.65898,0.65898 0.36394,0 0.65898,-0.29504 0.65898,-0.65898"
       style="fill:#000000;fill-opacity:1;fill-rule:nonzero;stroke:none;stroke-width:0.330729"
       id="path27537"
       inkscape:connector-curvature="0" />
    <path
       d="m 112.07327,72.266156 8.0635,-0.80631"
       style="fill:none;stroke:#000000;stroke-width:0.330729;stroke-linecap:round;stroke-linejoin:miter;stroke-miterlimit:10;stroke-dasharray:0, 0.863677;stroke-dashoffset:-0.165365;stroke-opacity:1"
       id="path27549"
       inkscape:connector-curvature="0" />
    <path
       d="m 121.45159,73.269266 c 0,-0.36394 -0.29504,-0.65898 -0.65898,-0.65898 -0.36393,0 -0.65898,0.29504 -0.65898,0.65898 0,0.36393 0.29505,0.65897 0.65898,0.65897 0.36394,0 0.65898,-0.29504 0.65898,-0.65897"
       style="fill:#000000;fill-opacity:1;fill-rule:nonzero;stroke:none;stroke-width:0.330729"
       id="path27559"
       inkscape:connector-curvature="0" />
    <path
       d="m 112.07327,72.397456 8.0635,0.80632"
       style="fill:none;stroke:#000000;stroke-width:0.330729;stroke-linecap:round;stroke-linejoin:miter;stroke-miterlimit:10;stroke-dasharray:0, 0.863677;stroke-dashoffset:-0.165365;stroke-opacity:1"
       id="path27571"
       inkscape:connector-curvature="0" />
    <path
       d="m 112.07674,76.081786 c 0,-0.36394 -0.29504,-0.65898 -0.65898,-0.65898 -0.36393,0 -0.65897,0.29504 -0.65897,0.65898 0,0.36393 0.29504,0.65897 0.65897,0.65897 0.36394,0 0.65898,-0.29504 0.65898,-0.65897"
       style="fill:#000000;fill-opacity:1;fill-rule:nonzero;stroke:none;stroke-width:0.330729"
       id="path27581"
       inkscape:connector-curvature="0" />
    <path
       d="m 102.68883,74.335866 8.08269,1.6166"
       style="fill:none;stroke:#000000;stroke-width:0.330729;stroke-linecap:round;stroke-linejoin:miter;stroke-miterlimit:10;stroke-dasharray:0, 0.791194;stroke-dashoffset:-0.165365;stroke-opacity:1"
       id="path27593"
       inkscape:connector-curvature="0" />
    <path
       d="m 121.45159,75.144166 c 0,-0.36393 -0.29504,-0.65898 -0.65898,-0.65898 -0.36393,0 -0.65898,0.29505 -0.65898,0.65898 0,0.36393 0.29505,0.65898 0.65898,0.65898 0.36394,0 0.65898,-0.29505 0.65898,-0.65898"
       style="fill:#000000;fill-opacity:1;fill-rule:nonzero;stroke:none;stroke-width:0.330729"
       id="path27603"
       inkscape:connector-curvature="0" />
    <path
       d="m 112.07327,76.016296 8.0635,-0.80631"
       style="fill:none;stroke:#000000;stroke-width:0.330729;stroke-linecap:round;stroke-linejoin:miter;stroke-miterlimit:10;stroke-dasharray:0, 0.863677;stroke-dashoffset:-0.165365;stroke-opacity:1"
       id="path27615"
       inkscape:connector-curvature="0" />
    <path
       d="m 121.45159,77.019396 c 0,-0.36393 -0.29504,-0.65897 -0.65898,-0.65897 -0.36393,0 -0.65898,0.29504 -0.65898,0.65897 0,0.36394 0.29505,0.65898 0.65898,0.65898 0.36394,0 0.65898,-0.29504 0.65898,-0.65898"
       style="fill:#000000;fill-opacity:1;fill-rule:nonzero;stroke:none;stroke-width:0.330729"
       id="path27625"
       inkscape:connector-curvature="0" />
    <path
       d="m 112.07327,76.147266 8.0635,0.80632"
       style="fill:none;stroke:#000000;stroke-width:0.330729;stroke-linecap:round;stroke-linejoin:miter;stroke-miterlimit:10;stroke-dasharray:0, 0.863677;stroke-dashoffset:-0.165365;stroke-opacity:1"
       id="path27637"
       inkscape:connector-curvature="0" />
    <text
       xml:space="preserve"
       style="font-style:normal;font-variant:normal;font-weight:normal;font-stretch:normal;font-size:3.96875px;line-height:0%;font-family:Chalkduster;-inkscape-font-specification:'Chalkduster, Normal';text-align:start;letter-spacing:0px;word-spacing:0px;writing-mode:lr-tb;text-anchor:start;fill:#000000;fill-opacity:1;stroke:none;stroke-width:0.330729px;stroke-linecap:butt;stroke-linejoin:miter;stroke-opacity:1"
       x="100.78649"
       y="42.131027"
       id="text28212"><tspan
         sodipodi:role="line"
         id="tspan28214"
         x="100.78649"
         y="42.131027"
         style="font-style:italic;font-variant:normal;font-weight:normal;font-stretch:normal;font-size:5.29167px;line-height:1.25;font-family:'Linux Libertine O';-inkscape-font-specification:'Linux Libertine O Italic';stroke-width:0.330729px">i<tspan
   style="font-size:2.75167px;baseline-shift:sub;stroke-width:0.330729px"
   id="tspan28216">c</tspan></tspan></text>
    <text
       xml:space="preserve"
       style="font-style:normal;font-variant:normal;font-weight:normal;font-stretch:normal;font-size:3.96875px;line-height:0%;font-family:Chalkduster;-inkscape-font-specification:'Chalkduster, Normal';text-align:start;letter-spacing:0px;word-spacing:0px;writing-mode:lr-tb;text-anchor:start;fill:#000000;fill-opacity:1;stroke:none;stroke-width:0.330729px;stroke-linecap:butt;stroke-linejoin:miter;stroke-opacity:1"
       x="93.767113"
       y="42.760979"
       id="text28218"><tspan
         sodipodi:role="line"
         id="tspan28220"
         x="93.767113"
         y="42.760979"
         style="font-size:5.29167px;line-height:1.25;stroke-width:0.330729px"> </tspan></text>
  </g>
</svg>
