<?xml version="1.0" encoding="UTF-8" standalone="no"?>
<svg
   xmlns:dc="http://purl.org/dc/elements/1.1/"
   xmlns:cc="http://creativecommons.org/ns#"
   xmlns:rdf="http://www.w3.org/1999/02/22-rdf-syntax-ns#"
   xmlns:svg="http://www.w3.org/2000/svg"
   xmlns="http://www.w3.org/2000/svg"
   xmlns:sodipodi="http://sodipodi.sourceforge.net/DTD/sodipodi-0.dtd"
   xmlns:inkscape="http://www.inkscape.org/namespaces/inkscape"
   width="210mm"
   height="297mm"
   viewBox="0 0 210 297"
   version="1.1"
   id="svg512"
   inkscape:version="1.0.1 (c497b03c, 2020-09-10)"
   sodipodi:docname="kilu1.svg">
  <defs
     id="defs506" />
  <sodipodi:namedview
     id="base"
     pagecolor="#ffffff"
     bordercolor="#666666"
     borderopacity="1.0"
     inkscape:pageopacity="0.0"
     inkscape:pageshadow="2"
     inkscape:zoom="0.44"
     inkscape:cx="400"
     inkscape:cy="560"
     inkscape:document-units="mm"
     inkscape:current-layer="layer1"
     inkscape:document-rotation="0"
     showgrid="false"
     inkscape:window-width="1252"
     inkscape:window-height="855"
     inkscape:window-x="0"
     inkscape:window-y="23"
     inkscape:window-maximized="0" />
  <metadata
     id="metadata509">
    <rdf:RDF>
      <cc:Work
         rdf:about="">
        <dc:format>image/svg+xml</dc:format>
        <dc:type
           rdf:resource="http://purl.org/dc/dcmitype/StillImage" />
        <dc:title></dc:title>
      </cc:Work>
    </rdf:RDF>
  </metadata>
  <g
     inkscape:label="Layer 1"
     inkscape:groupmode="layer"
     id="layer1">
    <path
       style="opacity:1;fill:#999999;fill-opacity:1;fill-rule:evenodd;stroke:none;stroke-width:1.6324;stroke-linecap:round;stroke-linejoin:miter;stroke-miterlimit:4;stroke-dasharray:none;stroke-dashoffset:0;stroke-opacity:1"
       d="m 115.37739,60.049086 c 1.79084,-2.045063 44.17375,-5.899799 45.46426,-4.539199 1.14944,1.211849 0.78957,79.063593 -0.94324,80.253063 -1.73279,1.18946 -44.64504,-1.14478 -45.8272,-2.5731 -1.18215,-1.42833 -0.48467,-71.0957 1.30618,-73.140764 z"
       id="path5099"
       inkscape:connector-curvature="0"
       sodipodi:nodetypes="zszzz" />
    <path
       style="opacity:1;fill:none;fill-opacity:1;fill-rule:evenodd;stroke:#808080;stroke-width:1.6324;stroke-linecap:round;stroke-linejoin:miter;stroke-miterlimit:4;stroke-dasharray:none;stroke-dashoffset:0;stroke-opacity:1"
       d="m 111.22712,61.704957 c 2.50007,0.387371 11.37863,0.144138 12.0735,1.997246 0.69487,1.853099 -43.787541,45.657257 -45.652908,45.391997 -1.865368,-0.26524 -9.61641,-11.410665 -9.243771,-12.528181 0.372642,-1.117515 40.323119,-35.248432 42.823179,-34.861062 z"
       id="path5103"
       inkscape:connector-curvature="0"
       sodipodi:nodetypes="zzzzz" />
    <path
       style="opacity:1;fill:#e6e6e6;fill-opacity:0.590769;fill-rule:evenodd;stroke:#000000;stroke-width:1.36033;stroke-linecap:round;stroke-linejoin:miter;stroke-miterlimit:4;stroke-dasharray:1.36033, 2.72068;stroke-dashoffset:0;stroke-opacity:1"
       d="m 73.12015,97.473855 c 0.425353,-2.780839 27.28078,-25.899011 29.6178,-26.690499 2.33702,-0.791489 22.7207,0.01634 24.71294,1.634117 1.99224,1.617815 0.58929,57.351837 -0.7546,59.009607 -1.34389,1.65776 -28.971027,-6.20993 -30.749684,-7.44429 C 94.167949,122.74843 72.694797,100.2547 73.12015,97.473855 Z"
       id="path5101"
       inkscape:connector-curvature="0"
       sodipodi:nodetypes="zzzzzz" />
    <path
       inkscape:connector-curvature="0"
       id="path4571"
       style="fill:#000000;fill-opacity:1;fill-rule:nonzero;stroke:none;stroke-width:0.680167"
       d="m 79.382531,98.487777 c 0,-0.660877 -0.556651,-1.196636 -1.243297,-1.196636 -0.686648,0 -1.2433,0.535759 -1.2433,1.196636 0,0.660875 0.556652,1.196634 1.2433,1.196634 0.686646,0 1.243297,-0.535759 1.243297,-1.196634" />
    <path
       inkscape:connector-curvature="0"
       id="path4577"
       style="fill:#000000;fill-opacity:1;fill-rule:nonzero;stroke:none;stroke-width:0.680167"
       d="m 99.173673,79.573028 c 0,-0.734277 -0.618496,-1.329557 -1.381405,-1.329557 -0.762909,0 -1.381405,0.59528 -1.381405,1.329557 0,0.734276 0.618496,1.329556 1.381405,1.329556 0.762909,0 1.381405,-0.59528 1.381405,-1.329556" />
    <path
       inkscape:connector-curvature="0"
       id="path4585"
       style="fill:none;stroke:#000000;stroke-width:0.680167;stroke-linecap:butt;stroke-linejoin:miter;stroke-miterlimit:10;stroke-dasharray:none;stroke-opacity:1"
       d="M 79.01834,97.641664 96.815406,80.513227" />
    <path
       inkscape:connector-curvature="0"
       id="path4591"
       style="fill:#ffffff;fill-opacity:1;fill-rule:nonzero;stroke:none;stroke-width:0.680167"
       d="m 118.82602,64.441763 c 0,-0.734275 -0.6185,-1.329558 -1.38141,-1.329558 -0.76291,0 -1.3814,0.595283 -1.3814,1.329558 0,0.734277 0.61849,1.329558 1.3814,1.329558 0.76291,0 1.38141,-0.595281 1.38141,-1.329558" />
    <path
       inkscape:connector-curvature="0"
       id="path4593"
       style="fill:#000000;fill-opacity:1;fill-rule:evenodd;stroke:none;stroke-width:0.680167"
       d="m 118.82602,64.441763 c 0,-0.734275 -0.6185,-1.329558 -1.38141,-1.329558 -0.76291,0 -1.3814,0.595283 -1.3814,1.329558 0,0.734277 0.61849,1.329558 1.3814,1.329558 0.76291,0 1.38141,-0.595281 1.38141,-1.329558 z m 0,0 h -0.27629 c 0,-0.587474 -0.49474,-1.063646 -1.10512,-1.063646 -0.61038,0 -1.10512,0.476172 -1.10512,1.063646 0,0.587474 0.49474,1.063647 1.10512,1.063647 0.61038,0 1.10512,-0.476173 1.10512,-1.063647" />
    <path
       inkscape:connector-curvature="0"
       id="path4601"
       style="fill:none;stroke:#000000;stroke-width:0.680167;stroke-linecap:butt;stroke-linejoin:miter;stroke-miterlimit:10;stroke-dasharray:none;stroke-opacity:1"
       d="M 98.871047,78.742929 116.36583,65.27186" />
    <path
       inkscape:connector-curvature="0"
       id="path4607"
       style="fill:#000000;fill-opacity:1;fill-rule:nonzero;stroke:none;stroke-width:0.680167"
       d="m 138.47904,60.65828 c 0,-0.734275 -0.61849,-1.329558 -1.38139,-1.329558 -0.76292,0 -1.38141,0.595283 -1.38141,1.329558 0,0.734275 0.61849,1.329558 1.38141,1.329558 0.7629,0 1.38139,-0.595283 1.38139,-1.329558" />
    <path
       inkscape:connector-curvature="0"
       id="path4615"
       style="fill:none;stroke:#000000;stroke-width:0.680167;stroke-linecap:butt;stroke-linejoin:miter;stroke-miterlimit:10;stroke-dasharray:4.03608, 2.42165, 0, 0;stroke-dashoffset:0;stroke-opacity:1"
       d="m 118.79932,64.180856 16.94361,-3.261669" />
    <path
       inkscape:connector-curvature="0"
       id="path4621"
       style="fill:#000000;fill-opacity:1;fill-rule:nonzero;stroke:none;stroke-width:0.680167"
       d="m 158.13139,58.767205 c 0,-0.734276 -0.61849,-1.329556 -1.38139,-1.329556 -0.76292,0 -1.38141,0.59528 -1.38141,1.329556 0,0.734277 0.61849,1.329557 1.38141,1.329557 0.7629,0 1.38139,-0.59528 1.38139,-1.329557" />
    <path
       inkscape:connector-curvature="0"
       id="path4629"
       style="fill:none;stroke:#000000;stroke-width:0.680167;stroke-linecap:butt;stroke-linejoin:miter;stroke-miterlimit:10;stroke-dasharray:3.96811, 2.38087, 0, 0;stroke-dashoffset:0;stroke-opacity:1"
       d="m 138.47177,60.526159 16.9034,-1.626831" />
    <path
       inkscape:connector-curvature="0"
       id="path4635"
       style="fill:#000000;fill-opacity:1;fill-rule:nonzero;stroke:none;stroke-width:0.680167"
       d="m 158.13139,62.550022 c 0,-0.734276 -0.61849,-1.329558 -1.38139,-1.329558 -0.76292,0 -1.38141,0.595282 -1.38141,1.329558 0,0.734277 0.61849,1.329557 1.38141,1.329557 0.7629,0 1.38139,-0.59528 1.38139,-1.329557" />
    <path
       inkscape:connector-curvature="0"
       id="path4643"
       style="fill:none;stroke:#000000;stroke-width:0.680167;stroke-linecap:butt;stroke-linejoin:miter;stroke-miterlimit:10;stroke-dasharray:3.96811, 2.38085, 0, 0;stroke-dashoffset:0;stroke-opacity:1"
       d="m 138.47177,60.791069 16.9034,1.626164" />
    <path
       inkscape:connector-curvature="0"
       id="path4649"
       style="fill:#000000;fill-opacity:1;fill-rule:nonzero;stroke:none;stroke-width:0.680167"
       d="m 138.47904,68.22458 c 0,-0.734276 -0.61849,-1.329558 -1.38139,-1.329558 -0.76292,0 -1.38141,0.595282 -1.38141,1.329558 0,0.734275 0.61849,1.329557 1.38141,1.329557 0.7629,0 1.38139,-0.595282 1.38139,-1.329557" />
    <path
       inkscape:connector-curvature="0"
       id="path4657"
       style="fill:none;stroke:#000000;stroke-width:0.680167;stroke-linecap:butt;stroke-linejoin:miter;stroke-miterlimit:10;stroke-dasharray:4.03608, 2.42165, 0, 0;stroke-dashoffset:0;stroke-opacity:1"
       d="m 118.79932,64.702004 16.94361,3.261669" />
    <path
       inkscape:connector-curvature="0"
       id="path4663"
       style="fill:#000000;fill-opacity:1;fill-rule:nonzero;stroke:none;stroke-width:0.680167"
       d="m 158.13139,66.332838 c 0,-0.734277 -0.61849,-1.329557 -1.38139,-1.329557 -0.76292,0 -1.38141,0.59528 -1.38141,1.329557 0,0.734276 0.61849,1.329558 1.38141,1.329558 0.7629,0 1.38139,-0.595282 1.38139,-1.329558" />
    <path
       inkscape:connector-curvature="0"
       id="path4671"
       style="fill:none;stroke:#000000;stroke-width:0.680167;stroke-linecap:butt;stroke-linejoin:miter;stroke-miterlimit:10;stroke-dasharray:3.96811, 2.38085, 0, 0;stroke-dashoffset:0;stroke-opacity:1"
       d="m 138.47177,68.091791 16.9034,-1.626832" />
    <path
       inkscape:connector-curvature="0"
       id="path4677"
       style="fill:#000000;fill-opacity:1;fill-rule:nonzero;stroke:none;stroke-width:0.680167"
       d="m 158.13139,70.115653 c 0,-0.734275 -0.61849,-1.329555 -1.38139,-1.329555 -0.76292,0 -1.38141,0.59528 -1.38141,1.329555 0,0.734278 0.61849,1.329558 1.38141,1.329558 0.7629,0 1.38139,-0.59528 1.38139,-1.329558" />
    <path
       inkscape:connector-curvature="0"
       id="path4685"
       style="fill:none;stroke:#000000;stroke-width:0.680167;stroke-linecap:butt;stroke-linejoin:miter;stroke-miterlimit:10;stroke-dasharray:3.96811, 2.38087, 0, 0;stroke-dashoffset:0;stroke-opacity:1"
       d="m 138.47177,68.356701 16.9034,1.626831" />
    <path
       inkscape:connector-curvature="0"
       id="path4691"
       style="fill:#000000;fill-opacity:1;fill-rule:nonzero;stroke:none;stroke-width:0.680167"
       d="m 118.82602,79.573028 c 0,-0.734277 -0.6185,-1.329557 -1.38141,-1.329557 -0.76291,0 -1.3814,0.59528 -1.3814,1.329557 0,0.734276 0.61849,1.329556 1.3814,1.329556 0.76291,0 1.38141,-0.59528 1.38141,-1.329556" />
    <path
       inkscape:connector-curvature="0"
       id="path4699"
       style="fill:none;stroke:#000000;stroke-width:0.680167;stroke-linecap:round;stroke-linejoin:miter;stroke-miterlimit:10;stroke-dasharray:0, 1.76551;stroke-dashoffset:-0.340084;stroke-opacity:1"
       d="M 99.173325,79.573028 H 116.06355" />
    <path
       inkscape:connector-curvature="0"
       id="path4705"
       style="fill:#000000;fill-opacity:1;fill-rule:nonzero;stroke:none;stroke-width:0.680167"
       d="m 138.47904,75.790212 c 0,-0.734276 -0.61849,-1.329558 -1.38139,-1.329558 -0.76292,0 -1.38141,0.595282 -1.38141,1.329558 0,0.734275 0.61849,1.329557 1.38141,1.329557 0.7629,0 1.38139,-0.595282 1.38139,-1.329557" />
    <path
       inkscape:connector-curvature="0"
       id="path4713"
       style="fill:none;stroke:#000000;stroke-width:0.680167;stroke-linecap:round;stroke-linejoin:miter;stroke-miterlimit:10;stroke-dasharray:0, 1.62714;stroke-dashoffset:-0.340084;stroke-opacity:1"
       d="m 118.79932,79.312788 16.94361,-3.26167" />
    <path
       inkscape:connector-curvature="0"
       id="path4719"
       style="fill:#000000;fill-opacity:1;fill-rule:nonzero;stroke:none;stroke-width:0.680167"
       d="m 158.13139,73.89847 c 0,-0.734275 -0.61849,-1.329558 -1.38139,-1.329558 -0.76292,0 -1.38141,0.595283 -1.38141,1.329558 0,0.734275 0.61849,1.329558 1.38141,1.329558 0.7629,0 1.38139,-0.595283 1.38139,-1.329558" />
    <path
       inkscape:connector-curvature="0"
       id="path4727"
       style="fill:none;stroke:#000000;stroke-width:0.680167;stroke-linecap:round;stroke-linejoin:miter;stroke-miterlimit:10;stroke-dasharray:0, 1.77621;stroke-dashoffset:-0.340084;stroke-opacity:1"
       d="m 138.47177,75.658091 16.9034,-1.626832" />
    <path
       inkscape:connector-curvature="0"
       id="path4733"
       style="fill:#000000;fill-opacity:1;fill-rule:nonzero;stroke:none;stroke-width:0.680167"
       d="m 158.13139,77.681953 c 0,-0.734275 -0.61849,-1.329558 -1.38139,-1.329558 -0.76292,0 -1.38141,0.595283 -1.38141,1.329558 0,0.734275 0.61849,1.329558 1.38141,1.329558 0.7629,0 1.38139,-0.595283 1.38139,-1.329558" />
    <path
       inkscape:connector-curvature="0"
       id="path4741"
       style="fill:none;stroke:#000000;stroke-width:0.680167;stroke-linecap:round;stroke-linejoin:miter;stroke-miterlimit:10;stroke-dasharray:0, 1.77621;stroke-dashoffset:-0.340084;stroke-opacity:1"
       d="m 138.47177,75.922332 16.9034,1.626832" />
    <path
       inkscape:connector-curvature="0"
       id="path4747"
       style="fill:#000000;fill-opacity:1;fill-rule:nonzero;stroke:none;stroke-width:0.680167"
       d="m 138.47904,83.355843 c 0,-0.734275 -0.61849,-1.329557 -1.38139,-1.329557 -0.76292,0 -1.38141,0.595282 -1.38141,1.329557 0,0.734278 0.61849,1.329558 1.38141,1.329558 0.7629,0 1.38139,-0.59528 1.38139,-1.329558" />
    <path
       inkscape:connector-curvature="0"
       id="path4755"
       style="fill:none;stroke:#000000;stroke-width:0.680167;stroke-linecap:round;stroke-linejoin:miter;stroke-miterlimit:10;stroke-dasharray:0, 1.62713;stroke-dashoffset:-0.340084;stroke-opacity:1"
       d="m 118.79932,79.833935 16.94361,3.261669" />
    <path
       inkscape:connector-curvature="0"
       id="path4761"
       style="fill:#000000;fill-opacity:1;fill-rule:nonzero;stroke:none;stroke-width:0.680167"
       d="m 158.13139,81.46477 c 0,-0.734278 -0.61849,-1.329558 -1.38139,-1.329558 -0.76292,0 -1.38141,0.59528 -1.38141,1.329558 0,0.734275 0.61849,1.329558 1.38141,1.329558 0.7629,0 1.38139,-0.595283 1.38139,-1.329558" />
    <path
       inkscape:connector-curvature="0"
       id="path4769"
       style="fill:none;stroke:#000000;stroke-width:0.680167;stroke-linecap:round;stroke-linejoin:miter;stroke-miterlimit:10;stroke-dasharray:0, 1.77621;stroke-dashoffset:-0.340084;stroke-opacity:1"
       d="m 138.47177,83.223722 16.9034,-1.626831" />
    <path
       inkscape:connector-curvature="0"
       id="path4775"
       style="fill:#000000;fill-opacity:1;fill-rule:nonzero;stroke:none;stroke-width:0.680167"
       d="m 158.13139,85.247585 c 0,-0.734276 -0.61849,-1.329556 -1.38139,-1.329556 -0.76292,0 -1.38141,0.59528 -1.38141,1.329556 0,0.734277 0.61849,1.329557 1.38141,1.329557 0.7629,0 1.38139,-0.59528 1.38139,-1.329557" />
    <path
       inkscape:connector-curvature="0"
       id="path4783"
       style="fill:none;stroke:#000000;stroke-width:0.680167;stroke-linecap:round;stroke-linejoin:miter;stroke-miterlimit:10;stroke-dasharray:0, 1.77621;stroke-dashoffset:-0.340084;stroke-opacity:1"
       d="m 138.47177,83.488632 16.9034,1.626832" />
    <path
       inkscape:connector-curvature="0"
       id="path4789"
       style="fill:#000000;fill-opacity:1;fill-rule:nonzero;stroke:none;stroke-width:0.680167"
       d="m 118.82602,94.70496 c 0,-0.734275 -0.6185,-1.329558 -1.38141,-1.329558 -0.76291,0 -1.3814,0.595283 -1.3814,1.329558 0,0.734275 0.61849,1.329558 1.3814,1.329558 0.76291,0 1.38141,-0.595283 1.38141,-1.329558" />
    <path
       inkscape:connector-curvature="0"
       id="path4797"
       style="fill:none;stroke:#000000;stroke-width:0.680167;stroke-linecap:round;stroke-linejoin:miter;stroke-miterlimit:10;stroke-dasharray:0, 1.63846;stroke-dashoffset:-0.340084;stroke-opacity:1"
       d="M 98.871047,80.403792 116.36583,93.874195" />
    <path
       inkscape:connector-curvature="0"
       id="path4803"
       style="fill:#000000;fill-opacity:1;fill-rule:nonzero;stroke:none;stroke-width:0.680167"
       d="m 138.47904,90.922143 c 0,-0.734275 -0.61849,-1.329558 -1.38139,-1.329558 -0.76292,0 -1.38141,0.595283 -1.38141,1.329558 0,0.734277 0.61849,1.329558 1.38141,1.329558 0.7629,0 1.38139,-0.595281 1.38139,-1.329558" />
    <path
       inkscape:connector-curvature="0"
       id="path4811"
       style="fill:none;stroke:#000000;stroke-width:0.680167;stroke-linecap:round;stroke-linejoin:miter;stroke-miterlimit:10;stroke-dasharray:0, 1.62713;stroke-dashoffset:-0.340084;stroke-opacity:1"
       d="M 118.79932,94.444053 135.74293,91.18305" />
    <path
       inkscape:connector-curvature="0"
       id="path4817"
       style="fill:#000000;fill-opacity:1;fill-rule:nonzero;stroke:none;stroke-width:0.680167"
       d="m 158.13139,89.030402 c 0,-0.734276 -0.61849,-1.329558 -1.38139,-1.329558 -0.76292,0 -1.38141,0.595282 -1.38141,1.329558 0,0.734275 0.61849,1.329557 1.38141,1.329557 0.7629,0 1.38139,-0.595282 1.38139,-1.329557" />
    <path
       inkscape:connector-curvature="0"
       id="path4825"
       style="fill:none;stroke:#000000;stroke-width:0.680167;stroke-linecap:round;stroke-linejoin:miter;stroke-miterlimit:10;stroke-dasharray:0, 1.77621;stroke-dashoffset:-0.340084;stroke-opacity:1"
       d="m 138.47177,90.790022 16.9034,-1.626832" />
    <path
       inkscape:connector-curvature="0"
       id="path4831"
       style="fill:#000000;fill-opacity:1;fill-rule:nonzero;stroke:none;stroke-width:0.680167"
       d="m 158.13139,92.813218 c 0,-0.734277 -0.61849,-1.329557 -1.38139,-1.329557 -0.76292,0 -1.38141,0.59528 -1.38141,1.329557 0,0.734276 0.61849,1.329558 1.38141,1.329558 0.7629,0 1.38139,-0.595282 1.38139,-1.329558" />
    <path
       inkscape:connector-curvature="0"
       id="path4839"
       style="fill:none;stroke:#000000;stroke-width:0.680167;stroke-linecap:round;stroke-linejoin:miter;stroke-miterlimit:10;stroke-dasharray:0, 1.77621;stroke-dashoffset:-0.340084;stroke-opacity:1"
       d="m 138.47177,91.054266 16.9034,1.62683" />
    <path
       inkscape:connector-curvature="0"
       id="path4845"
       style="fill:#000000;fill-opacity:1;fill-rule:nonzero;stroke:none;stroke-width:0.680167"
       d="m 138.47904,98.487777 c 0,-0.734278 -0.61849,-1.329558 -1.38139,-1.329558 -0.76292,0 -1.38141,0.59528 -1.38141,1.329558 0,0.734275 0.61849,1.329555 1.38141,1.329555 0.7629,0 1.38139,-0.59528 1.38139,-1.329555" />
    <path
       inkscape:connector-curvature="0"
       id="path4853"
       style="fill:none;stroke:#000000;stroke-width:0.680167;stroke-linecap:round;stroke-linejoin:miter;stroke-miterlimit:10;stroke-dasharray:0, 1.62714;stroke-dashoffset:-0.340084;stroke-opacity:1"
       d="m 118.79932,94.965866 16.94361,3.26167" />
    <path
       inkscape:connector-curvature="0"
       id="path4859"
       style="fill:#000000;fill-opacity:1;fill-rule:nonzero;stroke:none;stroke-width:0.680167"
       d="m 158.13139,96.596701 c 0,-0.734275 -0.61849,-1.329558 -1.38139,-1.329558 -0.76292,0 -1.38141,0.595283 -1.38141,1.329558 0,0.734275 0.61849,1.329558 1.38141,1.329558 0.7629,0 1.38139,-0.595283 1.38139,-1.329558" />
    <path
       inkscape:connector-curvature="0"
       id="path4867"
       style="fill:none;stroke:#000000;stroke-width:0.680167;stroke-linecap:round;stroke-linejoin:miter;stroke-miterlimit:10;stroke-dasharray:0, 1.77621;stroke-dashoffset:-0.340084;stroke-opacity:1"
       d="m 138.47177,98.355654 16.9034,-1.626832" />
    <path
       inkscape:connector-curvature="0"
       id="path4873"
       style="fill:#000000;fill-opacity:1;fill-rule:nonzero;stroke:none;stroke-width:0.680167"
       d="m 158.13139,100.37952 c 0,-0.734279 -0.61849,-1.32956 -1.38139,-1.32956 -0.76292,0 -1.38141,0.595281 -1.38141,1.32956 0,0.73427 0.61849,1.32956 1.38141,1.32956 0.7629,0 1.38139,-0.59529 1.38139,-1.32956" />
    <path
       inkscape:connector-curvature="0"
       id="path4881"
       style="fill:none;stroke:#000000;stroke-width:0.680167;stroke-linecap:round;stroke-linejoin:miter;stroke-miterlimit:10;stroke-dasharray:0, 1.77621;stroke-dashoffset:-0.340084;stroke-opacity:1"
       d="m 138.47177,98.619898 16.9034,1.627502" />
    <path
       inkscape:connector-curvature="0"
       id="path4887"
       style="fill:#000000;fill-opacity:1;fill-rule:nonzero;stroke:none;stroke-width:0.680167"
       d="m 99.173673,117.40252 c 0,-0.73427 -0.618496,-1.32955 -1.381405,-1.32955 -0.762909,0 -1.381405,0.59528 -1.381405,1.32955 0,0.73428 0.618496,1.32956 1.381405,1.32956 0.762909,0 1.381405,-0.59528 1.381405,-1.32956" />
    <path
       inkscape:connector-curvature="0"
       id="path4895"
       style="fill:none;stroke:#000000;stroke-width:0.680167;stroke-linecap:round;stroke-linejoin:miter;stroke-miterlimit:10;stroke-dasharray:0, 1.71509;stroke-dashoffset:-0.340084;stroke-opacity:1"
       d="M 79.01834,99.333888 96.815406,116.46232" />
    <path
       inkscape:connector-curvature="0"
       id="path4901"
       style="fill:#000000;fill-opacity:1;fill-rule:nonzero;stroke:none;stroke-width:0.680167"
       d="m 118.82602,109.83689 c 0,-0.73428 -0.6185,-1.32956 -1.38141,-1.32956 -0.76291,0 -1.3814,0.59528 -1.3814,1.32956 0,0.73427 0.61849,1.32956 1.3814,1.32956 0.76291,0 1.38141,-0.59529 1.38141,-1.32956" />
    <path
       inkscape:connector-curvature="0"
       id="path4909"
       style="fill:none;stroke:#000000;stroke-width:0.680167;stroke-linecap:round;stroke-linejoin:miter;stroke-miterlimit:10;stroke-dasharray:0, 1.73748;stroke-dashoffset:-0.340084;stroke-opacity:1"
       d="M 99.074877,116.90873 116.162,110.33068" />
    <path
       inkscape:connector-curvature="0"
       id="path4915"
       style="fill:#000000;fill-opacity:1;fill-rule:nonzero;stroke:none;stroke-width:0.680167"
       d="m 138.47904,106.05408 c 0,-0.73428 -0.61849,-1.32956 -1.38139,-1.32956 -0.76292,0 -1.38141,0.59528 -1.38141,1.32956 0,0.73427 0.61849,1.32955 1.38141,1.32955 0.7629,0 1.38139,-0.59528 1.38139,-1.32955" />
    <path
       inkscape:connector-curvature="0"
       id="path4923"
       style="fill:none;stroke:#000000;stroke-width:0.680167;stroke-linecap:round;stroke-linejoin:miter;stroke-miterlimit:10;stroke-dasharray:0, 1.62713;stroke-dashoffset:-0.340084;stroke-opacity:1"
       d="m 118.79932,109.57598 16.94361,-3.261" />
    <path
       inkscape:connector-curvature="0"
       id="path4929"
       style="fill:#000000;fill-opacity:1;fill-rule:nonzero;stroke:none;stroke-width:0.680167"
       d="m 158.13139,104.16233 c 0,-0.73427 -0.61849,-1.32955 -1.38139,-1.32955 -0.76292,0 -1.38141,0.59528 -1.38141,1.32955 0,0.73428 0.61849,1.32956 1.38141,1.32956 0.7629,0 1.38139,-0.59528 1.38139,-1.32956" />
    <path
       inkscape:connector-curvature="0"
       id="path4937"
       style="fill:none;stroke:#000000;stroke-width:0.680167;stroke-linecap:round;stroke-linejoin:miter;stroke-miterlimit:10;stroke-dasharray:0, 1.77621;stroke-dashoffset:-0.340084;stroke-opacity:1"
       d="m 138.47177,105.92195 16.9034,-1.62749" />
    <path
       inkscape:connector-curvature="0"
       id="path4943"
       style="fill:#000000;fill-opacity:1;fill-rule:nonzero;stroke:none;stroke-width:0.680167"
       d="m 158.13139,107.94515 c 0,-0.73428 -0.61849,-1.32956 -1.38139,-1.32956 -0.76292,0 -1.38141,0.59528 -1.38141,1.32956 0,0.73427 0.61849,1.32956 1.38141,1.32956 0.7629,0 1.38139,-0.59529 1.38139,-1.32956" />
    <path
       inkscape:connector-curvature="0"
       id="path4951"
       style="fill:none;stroke:#000000;stroke-width:0.680167;stroke-linecap:round;stroke-linejoin:miter;stroke-miterlimit:10;stroke-dasharray:0, 1.77621;stroke-dashoffset:-0.340084;stroke-opacity:1"
       d="m 138.47177,106.1862 16.9034,1.62682" />
    <path
       inkscape:connector-curvature="0"
       id="path4957"
       style="fill:#000000;fill-opacity:1;fill-rule:nonzero;stroke:none;stroke-width:0.680167"
       d="m 138.47904,113.61971 c 0,-0.73428 -0.61849,-1.32956 -1.38139,-1.32956 -0.76292,0 -1.38141,0.59528 -1.38141,1.32956 0,0.73427 0.61849,1.32956 1.38141,1.32956 0.7629,0 1.38139,-0.59529 1.38139,-1.32956" />
    <path
       inkscape:connector-curvature="0"
       id="path4965"
       style="fill:none;stroke:#000000;stroke-width:0.680167;stroke-linecap:round;stroke-linejoin:miter;stroke-miterlimit:10;stroke-dasharray:0, 1.62713;stroke-dashoffset:-0.340084;stroke-opacity:1"
       d="m 118.79932,110.0978 16.94361,3.261" />
    <path
       inkscape:connector-curvature="0"
       id="path4971"
       style="fill:#000000;fill-opacity:1;fill-rule:nonzero;stroke:none;stroke-width:0.680167"
       d="m 158.13139,111.72863 c 0,-0.73427 -0.61849,-1.32955 -1.38139,-1.32955 -0.76292,0 -1.38141,0.59528 -1.38141,1.32955 0,0.73428 0.61849,1.32956 1.38141,1.32956 0.7629,0 1.38139,-0.59528 1.38139,-1.32956" />
    <path
       inkscape:connector-curvature="0"
       id="path4979"
       style="fill:none;stroke:#000000;stroke-width:0.680167;stroke-linecap:round;stroke-linejoin:miter;stroke-miterlimit:10;stroke-dasharray:0, 1.77621;stroke-dashoffset:-0.340084;stroke-opacity:1"
       d="m 138.47177,113.48758 16.9034,-1.62683" />
    <path
       inkscape:connector-curvature="0"
       id="path4985"
       style="fill:#000000;fill-opacity:1;fill-rule:nonzero;stroke:none;stroke-width:0.680167"
       d="m 158.13139,115.51145 c 0,-0.73428 -0.61849,-1.32956 -1.38139,-1.32956 -0.76292,0 -1.38141,0.59528 -1.38141,1.32956 0,0.73427 0.61849,1.32956 1.38141,1.32956 0.7629,0 1.38139,-0.59529 1.38139,-1.32956" />
    <path
       inkscape:connector-curvature="0"
       id="path4993"
       style="fill:none;stroke:#000000;stroke-width:0.680167;stroke-linecap:round;stroke-linejoin:miter;stroke-miterlimit:10;stroke-dasharray:0, 1.77621;stroke-dashoffset:-0.340084;stroke-opacity:1"
       d="m 138.47177,113.75183 16.9034,1.62749" />
    <path
       inkscape:connector-curvature="0"
       id="path4999"
       style="fill:#000000;fill-opacity:1;fill-rule:nonzero;stroke:none;stroke-width:0.680167"
       d="m 118.82602,124.96882 c 0,-0.73427 -0.6185,-1.32955 -1.38141,-1.32955 -0.76291,0 -1.3814,0.59528 -1.3814,1.32955 0,0.73428 0.61849,1.32956 1.3814,1.32956 0.76291,0 1.38141,-0.59528 1.38141,-1.32956" />
    <path
       inkscape:connector-curvature="0"
       id="path5007"
       style="fill:none;stroke:#000000;stroke-width:0.680167;stroke-linecap:round;stroke-linejoin:miter;stroke-miterlimit:10;stroke-dasharray:0, 1.7375;stroke-dashoffset:-0.340084;stroke-opacity:1"
       d="M 99.074877,117.89631 116.162,124.47503" />
    <path
       inkscape:connector-curvature="0"
       id="path5013"
       style="fill:#000000;fill-opacity:1;fill-rule:nonzero;stroke:none;stroke-width:0.680167"
       d="m 138.47904,121.18601 c 0,-0.73428 -0.61849,-1.32956 -1.38139,-1.32956 -0.76292,0 -1.38141,0.59528 -1.38141,1.32956 0,0.73427 0.61849,1.32956 1.38141,1.32956 0.7629,0 1.38139,-0.59529 1.38139,-1.32956" />
    <path
       inkscape:connector-curvature="0"
       id="path5021"
       style="fill:none;stroke:#000000;stroke-width:0.680167;stroke-linecap:round;stroke-linejoin:miter;stroke-miterlimit:10;stroke-dasharray:0, 1.62714;stroke-dashoffset:-0.340084;stroke-opacity:1"
       d="m 118.79932,124.70791 16.94361,-3.26167" />
    <path
       inkscape:connector-curvature="0"
       id="path5027"
       style="fill:#000000;fill-opacity:1;fill-rule:nonzero;stroke:none;stroke-width:0.680167"
       d="m 158.13139,119.29426 c 0,-0.73427 -0.61849,-1.32955 -1.38139,-1.32955 -0.76292,0 -1.38141,0.59528 -1.38141,1.32955 0,0.73428 0.61849,1.32956 1.38141,1.32956 0.7629,0 1.38139,-0.59528 1.38139,-1.32956" />
    <path
       inkscape:connector-curvature="0"
       id="path5035"
       style="fill:none;stroke:#000000;stroke-width:0.680167;stroke-linecap:round;stroke-linejoin:miter;stroke-miterlimit:10;stroke-dasharray:0, 1.77621;stroke-dashoffset:-0.340084;stroke-opacity:1"
       d="m 138.47177,121.05321 16.9034,-1.62682" />
    <path
       inkscape:connector-curvature="0"
       id="path5041"
       style="fill:#000000;fill-opacity:1;fill-rule:nonzero;stroke:none;stroke-width:0.680167"
       d="m 158.13139,123.07708 c 0,-0.73428 -0.61849,-1.32956 -1.38139,-1.32956 -0.76292,0 -1.38141,0.59528 -1.38141,1.32956 0,0.73427 0.61849,1.32956 1.38141,1.32956 0.7629,0 1.38139,-0.59529 1.38139,-1.32956" />
    <path
       inkscape:connector-curvature="0"
       id="path5049"
       style="fill:none;stroke:#000000;stroke-width:0.680167;stroke-linecap:round;stroke-linejoin:miter;stroke-miterlimit:10;stroke-dasharray:0, 1.77621;stroke-dashoffset:-0.340084;stroke-opacity:1"
       d="m 138.47177,121.31813 16.9034,1.62683" />
    <path
       inkscape:connector-curvature="0"
       id="path5055"
       style="fill:#000000;fill-opacity:1;fill-rule:nonzero;stroke:none;stroke-width:0.680167"
       d="m 138.47904,128.75164 c 0,-0.73428 -0.61849,-1.32956 -1.38139,-1.32956 -0.76292,0 -1.38141,0.59528 -1.38141,1.32956 0,0.73427 0.61849,1.32956 1.38141,1.32956 0.7629,0 1.38139,-0.59529 1.38139,-1.32956" />
    <path
       inkscape:connector-curvature="0"
       id="path5063"
       style="fill:none;stroke:#000000;stroke-width:0.680167;stroke-linecap:round;stroke-linejoin:miter;stroke-miterlimit:10;stroke-dasharray:0, 1.62714;stroke-dashoffset:-0.340084;stroke-opacity:1"
       d="m 118.79932,125.22906 16.94361,3.26167" />
    <path
       inkscape:connector-curvature="0"
       id="path5069"
       style="fill:#000000;fill-opacity:1;fill-rule:nonzero;stroke:none;stroke-width:0.680167"
       d="m 158.13139,126.8599 c 0,-0.73428 -0.61849,-1.32956 -1.38139,-1.32956 -0.76292,0 -1.38141,0.59528 -1.38141,1.32956 0,0.73427 0.61849,1.32956 1.38141,1.32956 0.7629,0 1.38139,-0.59529 1.38139,-1.32956" />
    <path
       inkscape:connector-curvature="0"
       id="path5077"
       style="fill:none;stroke:#000000;stroke-width:0.680167;stroke-linecap:round;stroke-linejoin:miter;stroke-miterlimit:10;stroke-dasharray:0, 1.77621;stroke-dashoffset:-0.340084;stroke-opacity:1"
       d="m 138.47177,128.61951 16.9034,-1.62683" />
    <path
       inkscape:connector-curvature="0"
       id="path5083"
       style="fill:#000000;fill-opacity:1;fill-rule:nonzero;stroke:none;stroke-width:0.680167"
       d="m 158.13139,130.64338 c 0,-0.73428 -0.61849,-1.32956 -1.38139,-1.32956 -0.76292,0 -1.38141,0.59528 -1.38141,1.32956 0,0.73427 0.61849,1.32956 1.38141,1.32956 0.7629,0 1.38139,-0.59529 1.38139,-1.32956" />
    <path
       inkscape:connector-curvature="0"
       id="path5091"
       style="fill:none;stroke:#000000;stroke-width:0.680167;stroke-linecap:round;stroke-linejoin:miter;stroke-miterlimit:10;stroke-dasharray:0, 1.77621;stroke-dashoffset:-0.340084;stroke-opacity:1"
       d="m 138.47177,128.88376 16.9034,1.62683" />
    <text
       id="text5093"
       y="61.415947"
       x="112.63628"
       style="font-style:normal;font-variant:normal;font-weight:normal;font-stretch:normal;font-size:8.16201px;line-height:0%;font-family:Chalkduster;-inkscape-font-specification:'Chalkduster, Normal';text-align:start;letter-spacing:0px;word-spacing:0px;writing-mode:lr-tb;text-anchor:start;fill:#000000;fill-opacity:1;stroke:none;stroke-width:0.680167px;stroke-linecap:butt;stroke-linejoin:miter;stroke-opacity:1"
       xml:space="preserve"
       transform="scale(1.0193114,0.98105446)"><tspan
         style="font-style:italic;font-variant:normal;font-weight:normal;font-stretch:normal;font-size:10.8827px;line-height:1.25;font-family:'Linux Libertine O';-inkscape-font-specification:'Linux Libertine O Italic';stroke-width:0.680167px"
         y="61.415947"
         x="112.63628"
         id="tspan5095"
         sodipodi:role="line">i<tspan
   id="tspan5097"
   style="font-size:5.659px;baseline-shift:sub;stroke-width:0.680167px">c</tspan></tspan></text>
  </g>
</svg>
